<svg width="49" height="48" viewBox="0 0 49 48" fill="none" xmlns="http://www.w3.org/2000/svg">
<path d="M46.5 32C46.1904 32 45.8851 31.9281 45.608 31.79L41.608 29.79C41.1333 29.5529 40.7722 29.1369 40.6041 28.6336C40.4361 28.1302 40.4749 27.5807 40.712 27.106C40.9491 26.6313 41.3651 26.2702 41.8684 26.1021C42.3718 25.9341 42.9213 25.9729 43.396 26.21L47.396 28.21C47.7997 28.4112 48.1236 28.743 48.315 29.1515C48.5063 29.56 48.554 30.0212 48.4502 30.4601C48.3464 30.8991 48.0973 31.2901 47.7433 31.5697C47.3892 31.8492 46.9511 32.0009 46.5 32ZM43.394 13.8L47.394 11.8C47.8687 11.5629 48.2298 11.1469 48.3979 10.6436C48.5659 10.1402 48.5271 9.59074 48.29 9.116C48.0529 8.64126 47.6369 8.28016 47.1336 8.11213C46.6302 7.94409 46.0807 7.9829 45.606 8.22L41.606 10.22C41.1313 10.4571 40.7702 10.8731 40.6021 11.3764C40.4341 11.8798 40.4729 12.4293 40.71 12.904C40.9471 13.3787 41.3631 13.7398 41.8664 13.9079C42.3698 14.0759 42.9193 14.0371 43.394 13.8ZM48.5 20C48.5 19.4696 48.2893 18.9609 47.9142 18.5858C47.5391 18.2107 47.0304 18 46.5 18H42.5C41.9696 18 41.4609 18.2107 41.0858 18.5858C40.7107 18.9609 40.5 19.4696 40.5 20C40.5 20.5304 40.7107 21.0391 41.0858 21.4142C41.4609 21.7893 41.9696 22 42.5 22H46.5C47.0304 22 47.5391 21.7893 47.9142 21.4142C48.2893 21.0391 48.5 20.5304 48.5 20ZM36.5 38V2C36.5 1.46957 36.2893 0.960859 35.9142 0.585786C35.5391 0.210714 35.0304 0 34.5 0C33.9696 0 33.4609 0.210714 33.0858 0.585786C32.7107 0.960859 32.5 1.46957 32.5 2C32.5 7.898 27.334 10 22.5 10H8.5C6.37827 10 4.34344 10.8429 2.84315 12.3431C1.34285 13.8434 0.5 15.8783 0.5 18L0.5 22C0.5 24.1217 1.34285 26.1566 2.84315 27.6569C4.34344 29.1571 6.37827 30 8.5 30H22.5C27.334 30 32.5 32.102 32.5 38C32.5 38.5304 32.7107 39.0391 33.0858 39.4142C33.4609 39.7893 33.9696 40 34.5 40C35.0304 40 35.5391 39.7893 35.9142 39.4142C36.2893 39.0391 36.5 38.5304 36.5 38ZM16.872 34H8.5C7.56883 33.9963 6.64125 33.8842 5.736 33.666L10.736 44.83C11.1559 45.7736 11.8404 46.5752 12.7065 47.1378C13.5726 47.7004 14.5832 47.9999 15.616 48C16.4377 47.9989 17.2461 47.7922 17.9674 47.3987C18.6888 47.0052 19.3002 46.4374 19.746 45.7471C20.1917 45.0568 20.4576 44.266 20.5195 43.4466C20.5813 42.6272 20.4371 41.8054 20.1 41.056L16.872 34Z" fill="#FFDA8B"/>
</svg>
