<svg width="49" height="40" viewBox="0 0 49 40" fill="none" xmlns="http://www.w3.org/2000/svg">
<path d="M0.7 8C1.64 3.44 5.68 0 10.5 0H38.5C43.32 0 47.36 3.44 48.3 8H0.7ZM48.5 12V30C48.5 35.52 44.02 40 38.5 40H10.5C4.98 40 0.5 35.52 0.5 30V12H48.5ZM20.5 20C20.5 18.9 19.6 18 18.5 18H10.5C9.4 18 8.5 18.9 8.5 20C8.5 21.1 9.4 22 10.5 22H12.5V30C12.5 31.1 13.4 32 14.5 32C15.6 32 16.5 31.1 16.5 30V22H18.5C19.6 22 20.5 21.1 20.5 20ZM40.5 28C40.5 26.9 39.6 26 38.5 26H26.5C25.4 26 24.5 26.9 24.5 28C24.5 29.1 25.4 30 26.5 30H38.5C39.6 30 40.5 29.1 40.5 28ZM40.5 20C40.5 18.9 39.6 18 38.5 18H26.5C25.4 18 24.5 18.9 24.5 20C24.5 21.1 25.4 22 26.5 22H38.5C39.6 22 40.5 21.1 40.5 20Z" fill="#FFDA8B"/>
</svg>
