<svg width="49" height="48" viewBox="0 0 49 48" fill="none" xmlns="http://www.w3.org/2000/svg">
<path d="M19.58 3.434C20.552 2.528 21.5 1.308 21.5 0H13.5C13.5 1.308 14.448 2.528 15.42 3.434C12.114 4.714 8.5 8.602 8.5 12.16C8.5 15.38 10.966 17.998 14 17.998H21C24.034 17.998 26.5 15.378 26.5 12.16C26.5 8.6 22.886 4.712 19.58 3.434ZM46.798 17.36C45.768 16.422 44.426 15.936 43.042 16.004C41.648 16.068 40.364 16.672 39.454 17.674L32.372 25.148C32.436 25.568 32.502 25.988 32.502 26.424C32.502 30.59 29.392 34.176 25.268 34.764L16.786 35.976L16.22 32.018L24.702 30.806C26.87 30.496 28.502 28.612 28.502 26.424C28.502 23.984 26.516 21.998 24.076 21.998H6.5C3.192 21.998 0.5 24.69 0.5 27.998V41.998C0.5 45.306 3.192 47.998 6.5 47.998H25.828L47.176 24.688C49.072 22.564 48.9 19.274 46.798 17.358V17.36ZM31.002 9.498L28.174 6.67L33.674 1.17C35.232 -0.39 37.772 -0.39 39.33 1.17L44.834 6.674L42.006 9.502L38.502 5.998V13.32C37.78 13.758 37.122 14.296 36.55 14.922L34.502 17.084V6L31.002 9.498Z" fill="#FFDA8B"/>
</svg>
