<svg width="88" height="88" viewBox="0 0 88 88" fill="none" xmlns="http://www.w3.org/2000/svg">
<path d="M32.1894 20.3346L30.7845 28.3524L18.0356 10.7764L32.1894 20.3346Z" fill="#FFDA8B"/>
<path d="M57.2499 38.8233L52.2992 67.1326C45.1992 70.0796 37.4113 71.5446 28.92 71.5446C22.2831 71.5446 17.3325 70.1911 14.0698 67.5031C10.8071 64.7962 9.17578 60.9039 9.17578 55.8041C9.17578 54.1161 9.37991 52.2446 9.80705 50.1673L10.2136 47.8309L15.274 18.9092C16.2003 18.724 17.2021 18.5936 18.2777 18.501L25.8598 28.8277L22.5405 47.7005C22.5405 47.7383 22.5216 47.7931 22.5216 47.8309C22.1511 50.018 21.9641 51.6494 21.9641 52.7627C21.9641 55.4507 22.7069 57.4526 24.1718 58.7322C25.6539 60.0119 28.1944 60.6415 31.8088 60.6415C35.1469 60.6415 38.2981 60.1406 41.2829 59.1216L44.8612 38.8216C46.6607 38.4511 48.7724 38.2658 51.1465 38.2658C53.5206 38.2658 55.6322 38.4511 57.2464 38.8216L57.2499 38.8233Z" fill="#32004B"/>
<path d="M78.8036 31.1652C78.7744 30.5528 78.7178 29.9575 78.6406 29.3743C78.5548 28.7894 78.4485 28.2147 78.3147 27.6692C78.1706 27.1134 78.0076 26.5868 77.8258 26.0687C77.6336 25.5507 77.4141 25.0429 77.1739 24.5558C77.1739 24.5558 77.1722 24.5523 77.1722 24.5506C76.9338 24.0651 76.6662 23.5986 76.3625 23.1508C76.3625 23.1508 76.3625 23.1491 76.3608 23.1474C76.0538 22.6877 75.7278 22.2468 75.383 21.8248C75.383 21.8248 75.383 21.8248 75.3813 21.8231C75.028 21.3943 74.6574 20.9946 74.2475 20.6035C74.2475 20.6035 74.2457 20.6 74.244 20.6C74.0416 20.4079 73.8323 20.2175 73.611 20.0254C70.1339 17.0269 64.7493 15.5225 57.4503 15.5225C49.0877 15.5225 41.576 17.2087 34.9288 20.5812H34.9185L32.7262 33.1996L32.6868 33.4278L31.6421 39.4145H38.4334L45.6089 28.2147C46.633 27.8596 47.736 27.5731 48.9144 27.3519V27.3621C49.4411 27.2575 49.9866 27.1614 50.5424 27.0842C49.9883 27.1614 49.4428 27.2472 48.9162 27.3519C49.1838 27.2952 49.4496 27.2558 49.7172 27.2078C49.9848 27.1597 50.2627 27.122 50.5406 27.0825C50.9232 27.0345 51.3074 26.9865 51.7003 26.9487C52.1411 26.9007 52.6008 26.863 53.0606 26.8338C53.4345 26.8046 53.8273 26.7858 54.2202 26.7755C54.4226 26.7652 54.6319 26.7566 54.8429 26.7566C55.2065 26.7377 55.5805 26.7377 55.963 26.7377C62.6393 26.7377 65.9741 29.7946 65.9741 35.8963C65.9741 36.4709 65.9449 37.0559 65.878 37.6391C65.8489 37.9496 65.8077 38.2635 65.7562 38.5791C65.8077 38.2635 65.8489 37.9513 65.878 37.6391C65.8111 38.2326 65.7151 38.8262 65.5813 39.4111C65.5813 39.4488 65.5813 39.4866 65.571 39.5243C65.5624 39.5638 65.5624 39.6015 65.5521 39.641L64.8248 43.8557L60.61 68.1114C61.8177 68.379 63.2346 68.5334 64.8436 68.6003C64.8471 68.6003 64.8505 68.6003 64.8539 68.6003C65.3874 68.6278 65.9295 68.6381 66.5007 68.6381C66.7443 68.6381 66.9673 68.6261 67.2023 68.6226C67.566 68.6175 67.9228 68.6106 68.2727 68.6003C69.9778 68.5334 71.4616 68.3808 72.7551 68.1114H72.7654L77.4741 41.8641L77.5359 41.5176L78.3987 36.7471C78.6766 34.5531 78.8207 33.0195 78.8207 32.1104C78.8207 31.7947 78.8121 31.4774 78.8018 31.1618L78.8036 31.1652ZM66.4939 68.6329C66.4939 68.6329 66.5024 68.6329 66.5076 68.6329C66.5024 68.6329 66.499 68.6329 66.4939 68.6329Z" fill="#32004B"/>
<path d="M60.6016 68.1151H60.6119L64.8266 43.8594L60.6016 68.1151Z" fill="#32004B"/>
</svg>
