<svg width="49" height="48" viewBox="0 0 49 48" fill="none" xmlns="http://www.w3.org/2000/svg">
<path d="M0.5 38C0.5 43.514 4.986 48 10.5 48H38.5C44.014 48 48.5 43.514 48.5 38V20H0.5V38ZM17.294 31.354H21.788L22.98 26.788C23.168 26.064 23.818 25.56 24.564 25.546C25.31 25.56 25.96 26.064 26.148 26.788L27.34 31.354H31.834C32.738 31.354 33.296 32.062 33.296 32.706C33.296 33.464 32.768 34.102 32.164 34.438L29.036 36.178L30.424 39.964C30.692 40.698 30.45 41.52 29.826 41.99C29.188 42.47 28.308 42.464 27.676 41.976L24.564 39.57L21.452 41.976C20.82 42.464 19.94 42.47 19.302 41.99C18.678 41.52 18.436 40.698 18.704 39.964L20.092 36.178L16.964 34.438C16.36 34.102 15.832 33.464 15.832 32.706C15.832 32.064 16.39 31.354 17.294 31.354ZM48.5 14V16H0.5V14C0.5 8.486 4.986 4 10.5 4H12.5V2C12.5 0.896 13.396 0 14.5 0C15.604 0 16.5 0.896 16.5 2V4H32.5V2C32.5 0.896 33.396 0 34.5 0C35.604 0 36.5 0.896 36.5 2V4H38.5C44.014 4 48.5 8.486 48.5 14Z" fill="#FFDA8B"/>
</svg>
