<svg width="37" height="48" viewBox="0 0 37 48" fill="none" xmlns="http://www.w3.org/2000/svg">
<path d="M10.502 39.9968H26.502V40.6168C26.502 44.6868 23.192 47.9968 19.122 47.9968H17.884C13.814 47.9968 10.504 44.6868 10.504 40.6168L10.502 39.9968ZM36.502 17.9968C36.502 23.1768 34.266 28.1068 30.366 31.5228C28.888 32.8188 27.816 34.3488 27.178 35.9968H9.62802C8.91202 34.2428 7.77602 32.5928 6.23802 31.1628C1.94002 27.1608 -0.0959815 21.5028 0.652019 15.6408C1.68202 7.56084 8.31002 1.03084 16.414 0.114844C21.548 -0.463156 26.674 1.15884 30.49 4.56884C34.31 7.98284 36.502 12.8768 36.502 17.9968ZM26.5 22.0008C26.5 19.2808 24.552 16.9808 21.87 16.5348L15.788 15.5208C15.042 15.3968 14.5 14.7568 14.5 14.0008C14.5 12.8988 15.396 12.0008 16.5 12.0008H21.036C21.748 12.0008 22.412 12.3848 22.77 13.0008C23.32 13.9568 24.542 14.2848 25.502 13.7308C26.458 13.1768 26.786 11.9548 26.23 10.9988C25.162 9.14884 23.17 7.99884 21.034 7.99884H20.498V5.99884C20.498 4.89484 19.604 3.99884 18.498 3.99884C17.392 3.99884 16.498 4.89484 16.498 5.99884V7.99884C13.19 7.99884 10.498 10.6908 10.498 13.9988C10.498 16.7188 12.446 19.0188 15.128 19.4648L21.21 20.4788C21.956 20.6028 22.498 21.2428 22.498 21.9988C22.498 23.1008 21.602 23.9988 20.498 23.9988H15.962C15.25 23.9988 14.586 23.6148 14.228 22.9988C13.676 22.0408 12.454 21.7108 11.496 22.2688C10.54 22.8228 10.212 24.0448 10.768 25.0008C11.836 26.8508 13.828 27.9988 15.964 27.9988H16.5V29.9988C16.5 31.1028 17.394 31.9988 18.5 31.9988C19.606 31.9988 20.5 31.1028 20.5 29.9988V27.9988C23.808 27.9988 26.5 25.3068 26.5 21.9988V22.0008Z" fill="#FFDA8B"/>
</svg>
