<svg width="49" height="48" viewBox="0 0 49 48" fill="none" xmlns="http://www.w3.org/2000/svg">
<path d="M47.204 1.29567C46.6134 0.699591 45.864 0.285792 45.0449 0.103539C44.2258 -0.0787145 43.3716 -0.0217434 42.584 0.267669L42.152 0.421669C32.5032 3.54222 23.7184 8.87708 16.5 15.9997C12.8758 20.0612 9.72242 24.5196 7.1 29.2897L11.672 33.9997L6.5 39.1717L9.328 41.9997L14.5 36.8277L19.14 41.4677C23.909 38.8445 28.3666 35.6912 32.428 32.0677C39.5744 24.8238 44.9341 16.0142 48.082 6.33767L48.232 5.91567C48.5214 5.12805 48.5784 4.27385 48.3961 3.45478C48.2139 2.6357 47.8001 1.88626 47.204 1.29567ZM22.5 27.9997C22.1044 27.9997 21.7178 27.8824 21.3889 27.6626C21.06 27.4429 20.8036 27.1305 20.6522 26.765C20.5009 26.3996 20.4613 25.9975 20.5384 25.6095C20.6156 25.2215 20.8061 24.8652 21.0858 24.5855C21.3655 24.3058 21.7219 24.1153 22.1098 24.0381C22.4978 23.9609 22.8999 24.0005 23.2654 24.1519C23.6308 24.3033 23.9432 24.5596 24.1629 24.8885C24.3827 25.2174 24.5 25.6041 24.5 25.9997C24.5 26.5301 24.2893 27.0388 23.9142 27.4139C23.5391 27.789 23.0304 27.9997 22.5 27.9997ZM28.5 21.9997C28.1044 21.9997 27.7178 21.8824 27.3889 21.6626C27.06 21.4428 26.8036 21.1305 26.6522 20.765C26.5009 20.3996 26.4613 19.9975 26.5384 19.6095C26.6156 19.2215 26.8061 18.8652 27.0858 18.5855C27.3655 18.3058 27.7219 18.1153 28.1098 18.0381C28.4978 17.9609 28.8999 18.0005 29.2654 18.1519C29.6308 18.3033 29.9432 18.5596 30.1629 18.8885C30.3827 19.2174 30.5 19.6041 30.5 19.9997C30.5 20.5301 30.2893 21.0388 29.9142 21.4139C29.5391 21.789 29.0304 21.9997 28.5 21.9997ZM34.5 15.9997C34.1044 15.9997 33.7178 15.8824 33.3889 15.6626C33.06 15.4428 32.8036 15.1305 32.6522 14.765C32.5009 14.3996 32.4613 13.9975 32.5384 13.6095C32.6156 13.2215 32.8061 12.8652 33.0858 12.5855C33.3655 12.3058 33.7219 12.1153 34.1098 12.0381C34.4978 11.9609 34.8999 12.0005 35.2654 12.1519C35.6308 12.3033 35.9432 12.5596 36.1629 12.8885C36.3827 13.2174 36.5 13.6041 36.5 13.9997C36.5 14.5301 36.2893 15.0388 35.9142 15.4139C35.5391 15.789 35.0304 15.9997 34.5 15.9997ZM38.394 31.5237C38.1431 34.7538 37.2075 37.8936 35.6496 40.7344C34.0916 43.5751 31.9469 46.0517 29.358 47.9997H22.5V44.1557C27.0884 41.5609 31.3683 38.4552 35.258 34.8977C36.36 33.7997 37.394 32.6677 38.394 31.5237ZM13.602 13.1357C10.0445 17.0254 6.93872 21.3053 4.344 25.8937H0.5V19.0357C2.44795 16.4468 4.92458 14.3021 7.76531 12.7441C10.606 11.1861 13.7458 10.2506 16.976 9.99967C15.832 10.9997 14.7 12.0337 13.602 13.1357Z" fill="#FFDA8B"/>
</svg>
