<svg width="24" height="24" viewBox="0 0 24 24" fill="none" xmlns="http://www.w3.org/2000/svg">
<path d="M21.443 16.8675C21.233 16.4925 20.978 16.1175 20.693 15.72C20.0148 14.8731 19.5447 13.879 19.3205 12.8175L19.0055 8.3925C18.818 4.965 16.8155 1.5 12.833 1.5H11.168C7.18548 1.5 5.16798 4.965 4.96548 8.385L4.65048 12.8175C4.42721 13.8884 3.95726 14.8925 3.27798 15.75C3.02298 16.14 2.76798 16.5 2.59548 16.8375C2.41035 17.086 2.29823 17.3812 2.27173 17.6899C2.24523 17.9986 2.3054 18.3086 2.44548 18.585C2.60891 18.8753 2.84968 19.1145 3.14099 19.276C3.4323 19.4375 3.76272 19.5151 4.09548 19.5H9.88548C9.76213 19.8398 9.7225 20.2044 9.76993 20.5628C9.81736 20.9212 9.95046 21.263 10.158 21.559C10.3655 21.8551 10.6413 22.0968 10.962 22.2637C11.2827 22.4305 11.6389 22.5176 12.0005 22.5176C12.362 22.5176 12.7182 22.4305 13.039 22.2637C13.3597 22.0968 13.6355 21.8551 13.843 21.559C14.0505 21.263 14.1836 20.9212 14.231 20.5628C14.2785 20.2044 14.2388 19.8398 14.1155 19.5H19.9055C20.2413 19.5122 20.5738 19.4302 20.8654 19.2632C21.157 19.0961 21.3961 18.8508 21.5555 18.555C21.6957 18.2911 21.7594 17.9934 21.7395 17.6952C21.7197 17.3971 21.617 17.1104 21.443 16.8675ZM12.7505 20.25C12.7505 20.3983 12.7065 20.5433 12.6241 20.6667C12.5417 20.79 12.4245 20.8861 12.2875 20.9429C12.1504 20.9997 11.9996 21.0145 11.8542 20.9856C11.7087 20.9566 11.575 20.8852 11.4701 20.7803C11.3653 20.6754 11.2938 20.5418 11.2649 20.3963C11.236 20.2508 11.2508 20.1 11.3076 19.963C11.3643 19.8259 11.4605 19.7088 11.5838 19.6264C11.7071 19.544 11.8521 19.5 12.0005 19.5C12.1994 19.5 12.3902 19.579 12.5308 19.7197C12.6715 19.8603 12.7505 20.0511 12.7505 20.25ZM20.2505 17.8725C20.2505 17.9325 20.123 18 19.9355 18H4.09548C3.90798 18 3.81048 17.9325 3.78048 17.8725C3.75048 17.8125 3.78048 17.73 3.85548 17.61C4.05798 17.265 4.29048 16.905 4.53048 16.545C5.28048 15.465 6.03048 14.235 6.14298 12.9225L6.46548 8.49C6.62298 5.955 7.95048 3 11.168 3H12.833C16.0505 3 17.378 5.955 17.5355 8.4975L17.858 12.9225C17.948 14.25 18.7505 15.465 19.5005 16.545C19.7405 16.905 19.973 17.295 20.213 17.6775C20.2369 17.7032 20.253 17.7352 20.2597 17.7696C20.2663 17.8041 20.2631 17.8397 20.2505 17.8725Z" fill="#4A4A4A"/>
</svg>
