<svg width="19" height="19" viewBox="0 0 19 19" fill="none" xmlns="http://www.w3.org/2000/svg">
<path d="M15 9C13.8757 10.1243 9.5 13.5 9.5 13.5M15 9C18 6 18 4 18 1C15 1 13 1 10 4M15 9L15.4752 11.376C15.8031 13.0153 15.29 14.71 14.1078 15.8922L12.9374 17.0626C12.4676 17.5324 11.6788 17.4219 11.3562 16.8411L9.5 13.5M9.5 13.5L5.5 9.5M10 4L5.5 9.5M10 4L7.62395 3.52479C5.98465 3.19693 4.28996 3.71004 3.10784 4.89216L1.93743 6.06257C1.46765 6.53235 1.57813 7.3212 2.1589 7.6438L5.5 9.5M13.5 5.50049L12.5 6.50049M1 18L4.39223 17.3216C5.32708 17.1346 6 16.3138 6 15.3604V15C6 13.8954 5.10457 13 4 13H3.63961C2.68625 13 1.86542 13.6729 1.67845 14.6078L1 18Z" stroke="#667085" stroke-width="1.5" stroke-linecap="round" stroke-linejoin="round"/>
</svg>
