<svg width="24" height="24" viewBox="0 0 24 24" fill="none" xmlns="http://www.w3.org/2000/svg">
<path d="M15.3333 0C10.5548 0 6.66667 3.8881 6.66667 8.66667C6.66667 9.77222 6.8761 10.829 7.25521 11.8021L6.19531 12.862C5.73978 13.3175 5.61744 13.9899 5.82812 14.5625L0.666667 19.724C0.239989 20.1506 0 20.7299 0 21.3333C0 21.9367 0.239989 22.516 0.666667 22.9427L1.05729 23.3333C1.48397 23.76 2.06325 24 2.66667 24C3.27008 24 3.84936 23.76 4.27604 23.3333L9.4375 18.1719C10.0101 18.3826 10.6825 18.2602 11.138 17.8047L12.1979 16.7448C13.171 17.1239 14.2278 17.3333 15.3333 17.3333C20.1119 17.3333 24 13.4452 24 8.66667C24 3.8881 20.1119 0 15.3333 0ZM15.3333 1.33333C19.3913 1.33333 22.6667 4.60869 22.6667 8.66667C22.6667 12.7246 19.3913 16 15.3333 16C11.2754 16 8 12.7246 8 8.66667C8 4.60869 11.2754 1.33333 15.3333 1.33333ZM7.8724 13.0703C8.61771 14.3281 9.67188 15.3823 10.9297 16.1276L10.1953 16.862C10.0819 16.9754 9.91811 16.9754 9.80469 16.862L7.13802 14.1953C7.0246 14.0819 7.0246 13.9181 7.13802 13.8047L7.8724 13.0703ZM6.66667 15.6094L8.39062 17.3333L3.33333 22.3906C3.15634 22.5676 2.91697 22.6667 2.66667 22.6667C2.41636 22.6667 2.17699 22.5676 2 22.3906L1.60938 22C1.43238 21.823 1.33333 21.5836 1.33333 21.3333C1.33333 21.083 1.43238 20.8437 1.60938 20.6667L6.66667 15.6094Z" fill="#4A4A4A"/>
<path d="M18.8622 6.8622L16.0002 9.72418L13.8049 7.52887C13.6799 7.40389 13.5103 7.33369 13.3336 7.33369C13.1568 7.33369 12.9872 7.40389 12.8622 7.52887L10.8622 9.52887C10.7372 9.65389 10.667 9.82344 10.667 10.0002C10.667 10.177 10.7372 10.3466 10.8622 10.4716C10.9872 10.5966 11.1568 10.6668 11.3336 10.6668C11.5103 10.6668 11.6799 10.5966 11.8049 10.4716L13.3336 8.94293L15.5289 11.1382C15.6539 11.2632 15.8234 11.3334 16.0002 11.3334C16.177 11.3334 16.3466 11.2632 16.4716 11.1382L19.8049 7.80491C19.9299 7.67989 20.0001 7.51034 20.0001 7.33356C20.0001 7.15677 19.9299 6.98722 19.8049 6.8622C19.6799 6.73721 19.5103 6.66699 19.3336 6.66699C19.1568 6.66699 18.9872 6.73721 18.8622 6.8622Z" fill="#4A4A4A"/>
</svg>
