<svg width="72" height="72" viewBox="0 0 72 72" fill="none" xmlns="http://www.w3.org/2000/svg">
<g clip-path="url(#clip0_513_7273)">
<path d="M29.9821 45.54L26.6605 47.9951L29.5841 64.8723L31.6021 48.7325L29.9821 45.54Z" fill="#EDB311"/>
<path d="M36.9472 45.54L35.3273 48.7325L37.3452 64.8723L40.2688 47.9951L36.9472 45.54Z" fill="#EDB311"/>
<path d="M42.5565 12.0479C41.8629 11.3206 40.7351 11.2536 39.9445 11.8741C38.6944 12.8554 36.5316 14.0681 33.4763 14.0681C30.4138 14.0681 28.2395 12.8494 26.984 11.867C26.1939 11.2489 25.0687 11.318 24.3762 12.0442L24.3726 12.0482C23.4 13.0683 22.8572 14.4236 22.8572 15.8329V24.7351C22.8572 30.569 27.6303 35.3421 33.4643 35.3421C39.2982 35.3421 44.0713 30.569 44.0713 24.7351V15.8327C44.0719 14.4233 43.5291 13.068 42.5565 12.0479Z" fill="#F9D0B4"/>
<path d="M44.7525 16.6504C44.5207 16.6504 44.2938 16.6698 44.0719 16.7044V24.7344C44.0719 24.9737 44.0609 25.2102 44.0452 25.4456C44.2761 25.4828 44.5112 25.5075 44.7525 25.5075C47.1982 25.5075 49.1811 23.5247 49.1811 21.079C49.1811 18.6332 47.1982 16.6504 44.7525 16.6504Z" fill="#F9D0B4"/>
<path d="M22.8575 24.7344C22.8575 23.6355 22.8575 18.8891 22.8575 16.7044C22.6356 16.6701 22.4086 16.6504 22.1768 16.6504C19.7311 16.6504 17.7483 18.6332 17.7483 21.079C17.7483 23.5247 19.7311 25.5075 22.1768 25.5075C22.4182 25.5075 22.6533 25.483 22.8842 25.4456C22.8684 25.2105 22.8575 24.9734 22.8575 24.7344Z" fill="#F9D0B4"/>
<path d="M44.0322 7.60219C43.677 7.60219 43.369 7.32825 43.3643 6.97304C43.283 1.06257 36.5333 -0.0478076 29.8117 1.11291C24.1127 2.097 19.9477 7.03885 19.9477 12.8219V17.2564C20.603 16.8733 21.3629 16.65 22.1768 16.65C22.4086 16.65 22.6356 16.6694 22.8575 16.704V15.8321C22.8575 14.4228 23.4 13.0674 24.3728 12.0473L24.3765 12.0434C25.0687 11.3175 26.1942 11.248 26.9842 11.8662C28.2397 12.8486 30.4141 14.0673 33.4766 14.0673C36.5318 14.0673 38.6947 12.8545 39.9448 11.8733C40.7354 11.2525 41.8632 11.3195 42.5568 12.0471C43.5293 13.0672 44.0722 14.4225 44.0722 15.8318V16.7037C44.2941 16.6691 44.521 16.6497 44.7528 16.6497C45.5766 16.6497 46.3449 16.8787 47.0053 17.2704C47.0053 16.0329 47.0053 14.7617 47.0053 13.6294C47.005 8.33738 45.0939 7.60219 44.0322 7.60219Z" fill="#5B5D60"/>
<path d="M69.9545 49.8796L65.5349 41.7939C65.0084 40.8307 64.2991 40.0103 63.4753 39.34C64.0387 38.8048 64.5283 38.1838 64.9122 37.4813L65.6775 36.0809C66.2442 35.0439 65.4938 33.7783 64.312 33.7783H52.1125C50.9307 33.7783 50.1803 35.0439 50.7471 36.0809L51.5123 37.4813C51.8963 38.1838 52.3862 38.8048 52.9493 39.34C52.1255 40.0103 51.4162 40.8307 50.8897 41.7939L46.4701 49.8799C42.5244 57.0984 47.7487 65.9075 55.9752 65.9075H60.4491C68.6756 65.9075 73.8998 57.0984 69.9545 49.8796Z" fill="#A57453"/>
<path d="M19.4943 71.2973H8.7688V66.9053H20.4533V70.3382C20.4533 70.8678 20.0239 71.2973 19.4943 71.2973Z" fill="#F5C84C"/>
<path d="M8.76881 62.5137H20.4533V66.9057H8.76881V62.5137Z" fill="#EDB311"/>
<path d="M20.4533 62.5131H8.76881V58.1211H19.4943C20.0239 58.1211 20.4533 58.5506 20.4533 59.0802V62.5131Z" fill="#F5C84C"/>
<path d="M12.3877 58.1215H0.703125V54.6886C0.703125 54.159 1.13259 53.7295 1.66219 53.7295H11.4286C11.9582 53.7295 12.3877 54.159 12.3877 54.6886V58.1215Z" fill="#F5C84C"/>
<path d="M0.703125 66.9053V70.3382C0.703125 70.8678 1.13259 71.2973 1.66219 71.2973H8.76881V66.9053H0.703125Z" fill="#EDB311"/>
<path d="M0.703125 62.5137H8.76881V66.9057H0.703125V62.5137Z" fill="#F5C84C"/>
<path d="M0.703125 58.1211H8.76881V62.5131H0.703125V58.1211Z" fill="#EDB311"/>
<path d="M11.4286 53.7297C11.9582 53.7297 12.3877 54.1591 12.3877 54.6887V58.1217H19.4943C20.0239 58.1217 20.4533 58.5511 20.4533 59.0807V70.3383C20.4533 70.8657 20.0278 71.2929 19.5013 71.2968H30.697L25.2506 39.8564C23.6236 40.6411 22.093 41.2849 19.8931 41.8387L13.5757 43.4289C11.6215 43.9208 10.2142 45.6263 10.1019 47.6383L9.74869 53.7297H11.4286Z" fill="#3EBEBA"/>
<path d="M55.9755 65.9078C47.7489 65.9078 42.5247 57.0988 46.4704 49.8802L50.4025 42.6861L47.0363 41.8387C44.8363 41.2849 43.3057 40.6409 41.6787 39.8564L36.2323 71.2965H56.8392C57.5741 71.2965 58.1583 70.6184 58.1172 69.8847L57.8866 65.9078H55.9755Z" fill="#3EBEBA"/>
<path d="M26.6605 47.9944L30.715 44.9977C31.3366 44.5384 31.4651 43.6606 31.0013 43.0424L27.3864 38.2227C27.0023 38.7863 26.476 39.2548 25.8404 39.5684C25.641 39.6669 25.4447 39.7625 25.2492 39.8567C25.2498 39.8564 25.2501 39.8562 25.2506 39.8562L26.6605 47.9944Z" fill="#F5C84C"/>
<path d="M40.2688 47.9944L36.2143 44.9977C35.5927 44.5384 35.4642 43.6606 35.928 43.0424L39.5429 38.2227C39.9271 38.7863 40.4533 39.2548 41.0889 39.5684C41.2883 39.6669 41.4847 39.7625 41.6801 39.8567C41.6796 39.8564 41.6793 39.8562 41.6787 39.8562L40.2688 47.9944Z" fill="#F5C84C"/>
<path d="M39.2729 37.7615C38.9942 37.2086 38.8406 36.5721 38.8406 35.9534V33.8662C37.2614 34.8019 35.4237 35.3419 33.4648 35.3419C31.5059 35.3419 29.6682 34.8019 28.089 33.8662V35.9534C28.089 36.5566 27.9428 37.1937 27.6564 37.7615C27.576 37.921 27.4868 38.0757 27.3862 38.2233L31.0011 43.0431C31.2517 43.3772 31.3239 43.7862 31.2441 44.165H35.6847C35.6048 43.7862 35.6771 43.3775 35.9277 43.0431L39.5426 38.2233C39.4425 38.0757 39.3531 37.921 39.2729 37.7615Z" fill="#F9D0B4"/>
<path d="M36.2143 44.9977C35.9288 44.7868 35.7528 44.4861 35.685 44.1641C34.1193 44.1641 32.7921 44.1641 31.2443 44.1641C31.1766 44.4861 31.0005 44.7865 30.715 44.9977L29.9821 45.5394L31.6021 48.7318H35.3273L36.9472 45.5394L36.2143 44.9977Z" fill="#3EBEBA"/>
<path d="M37.3452 64.8722L35.3273 48.7324C35.2403 48.7324 31.4111 48.7324 31.6021 48.7324L29.5841 64.8722L30.697 71.2965H36.2323L37.3452 64.8722Z" fill="#3EBEBA"/>
<path d="M14.0662 6.24355C13.1943 6.0748 12.4912 5.3998 12.3224 4.52793C12.3224 4.4998 12.238 4.4998 12.238 4.52793C12.0693 5.3998 11.3662 6.0748 10.4943 6.24355C10.4662 6.24355 10.4662 6.2998 10.4943 6.32793C11.3662 6.49668 12.0693 7.17168 12.238 8.04355C12.238 8.07168 12.3224 8.07168 12.3224 8.04355C12.4912 7.17168 13.1943 6.49668 14.0662 6.32793C14.0943 6.2998 14.0943 6.24355 14.0662 6.24355Z" fill="#FC657E"/>
<path d="M10.9724 30.7971H11.6193V31.4439C11.6193 31.9502 12.013 32.3439 12.5193 32.3439C12.9974 32.3439 13.4193 31.9502 13.4193 31.4721V31.4439V30.7971H14.0662C14.5724 30.7971 14.9662 30.4033 14.9662 29.8971C14.9662 29.4189 14.5724 28.9971 14.0943 28.9971H14.0662H13.4193V28.3502C13.4193 27.8439 13.0255 27.4502 12.5193 27.4502C12.0412 27.4502 11.6193 27.8439 11.6193 28.3221V28.3502V28.9971H10.9724C10.4662 28.9971 10.0724 29.3908 10.0724 29.8971C10.0443 30.3752 10.438 30.7971 10.9724 30.7971C10.9443 30.7971 10.9443 30.7971 10.9724 30.7971Z" fill="#87D147"/>
<path d="M3.7724 43.1156C4.30053 43.1156 4.72865 42.6875 4.72865 42.1594C4.72865 41.6313 4.30053 41.2031 3.7724 41.2031C3.24428 41.2031 2.81615 41.6313 2.81615 42.1594C2.81615 42.6875 3.24428 43.1156 3.7724 43.1156Z" fill="#F5C84C"/>
<path d="M54.1162 7.25625C54.6443 7.25625 55.0724 6.82812 55.0724 6.3C55.0724 5.77188 54.6443 5.34375 54.1162 5.34375C53.588 5.34375 53.1599 5.77188 53.1599 6.3C53.1599 6.82812 53.588 7.25625 54.1162 7.25625Z" fill="#3EBEBA"/>
<path d="M60.9787 22.2752C62.2443 22.0502 63.2287 21.0658 63.4818 19.8283C63.4818 19.7721 63.5943 19.7721 63.5943 19.8283C63.8474 21.0658 64.8318 22.0502 66.0974 22.2752C66.1537 22.2752 66.1537 22.3596 66.0974 22.3877C64.8318 22.6127 63.8474 23.5971 63.5943 24.8346C63.5943 24.8908 63.4818 24.8908 63.4818 24.8346C63.2287 23.5971 62.2443 22.6127 60.9787 22.3877C60.9224 22.3596 60.9224 22.2752 60.9787 22.2752Z" fill="#F5C84C"/>
<path d="M33.4645 36.0448C27.2281 36.0448 22.1543 30.971 22.1543 24.7346V15.8324C22.1543 14.2349 22.7616 12.7187 23.8641 11.5622C24.8088 10.5717 26.3348 10.4662 27.4174 11.313C28.6133 12.249 30.6354 13.3648 33.4763 13.3648C36.3111 13.3648 38.3223 12.2533 39.5106 11.3206C40.5942 10.4696 42.1222 10.5736 43.0653 11.5619C44.1678 12.7182 44.775 14.2347 44.775 15.8322V24.7343C44.775 30.971 39.7013 36.0448 33.4645 36.0448ZM25.7721 12.1498C25.4464 12.1498 25.1249 12.2777 24.8853 12.5292C24.0297 13.4261 23.5609 14.598 23.5609 15.8324V24.7346C23.5609 30.1956 28.0038 34.6385 33.4648 34.6385C38.9258 34.6385 43.3687 30.1956 43.3687 24.7346V15.8324C43.3687 14.598 42.8996 13.4261 42.0477 12.5331C41.6078 12.0713 40.8901 12.026 40.3788 12.4271C39.0161 13.4967 36.7127 14.7713 33.4763 14.7713C30.2349 14.7713 27.9211 13.493 26.5506 12.4209C26.3188 12.2392 26.044 12.1498 25.7721 12.1498Z" fill="black"/>
<path d="M44.7525 26.2104C44.4966 26.2104 44.2285 26.1873 43.9335 26.14C43.5749 26.0824 43.319 25.7609 43.3434 25.3987C43.3606 25.1439 43.3685 24.9326 43.3685 24.7344V16.7044C43.3685 16.3576 43.6213 16.0626 43.9642 16.0094C44.2305 15.9684 44.4957 15.9473 44.7522 15.9473C47.5819 15.9473 49.8839 18.2496 49.8839 21.079C49.8839 23.9083 47.5822 26.2104 44.7525 26.2104ZM44.775 17.3535V24.7344C44.775 24.7574 44.775 24.7808 44.7747 24.8041C46.8188 24.792 48.4779 23.1256 48.4779 21.079C48.4779 19.0323 46.8188 17.3659 44.775 17.3535Z" fill="black"/>
<path d="M22.1768 26.2104C19.3472 26.2104 17.0452 23.9083 17.0452 21.079C17.0452 18.2496 19.3472 15.9473 22.1768 15.9473C22.4333 15.9473 22.6986 15.9681 22.9649 16.0094C23.3078 16.0623 23.5606 16.3573 23.5606 16.7044V24.7346C23.5606 24.9326 23.5685 25.1439 23.5856 25.3987C23.6098 25.7606 23.3547 26.0818 22.9964 26.1398C22.7019 26.1873 22.4339 26.2104 22.1768 26.2104ZM22.1543 17.3535C20.1105 17.3659 18.4514 19.0323 18.4514 21.079C18.4514 23.1256 20.1105 24.792 22.1546 24.8041C22.1546 24.7808 22.1543 24.7574 22.1543 24.7344V17.3535Z" fill="black"/>
<path d="M33.6189 29.4705C32.2599 29.4705 30.9842 28.9159 30.2063 27.9875C29.9568 27.6899 29.9959 27.2464 30.2937 26.9972C30.5916 26.7474 31.0351 26.7874 31.284 27.0847C31.7984 27.6983 32.6711 28.0645 33.6189 28.0645C34.5668 28.0645 35.4395 27.6981 35.9539 27.0847C36.2031 26.7874 36.6466 26.7477 36.9442 26.9972C37.242 27.2467 37.2811 27.6902 37.0316 27.9875C36.2534 28.9162 34.9777 29.4705 33.6189 29.4705Z" fill="black"/>
<path d="M38.4044 22.9937C39.1915 22.9937 39.8295 22.3557 39.8295 21.5686C39.8295 20.7816 39.1915 20.1436 38.4044 20.1436C37.6173 20.1436 36.9793 20.7816 36.9793 21.5686C36.9793 22.3557 37.6173 22.9937 38.4044 22.9937Z" fill="black"/>
<path d="M28.8335 22.9937C29.6205 22.9937 30.2586 22.3557 30.2586 21.5686C30.2586 20.7816 29.6205 20.1436 28.8335 20.1436C28.0464 20.1436 27.4084 20.7816 27.4084 21.5686C27.4084 22.3557 28.0464 22.9937 28.8335 22.9937Z" fill="black"/>
<path d="M47.005 17.974C46.881 17.974 46.757 17.9414 46.6464 17.8755C46.0704 17.5338 45.4154 17.3535 44.7525 17.3535C44.5677 17.3535 44.3748 17.369 44.179 17.3991C43.9765 17.4306 43.7698 17.3715 43.614 17.2382C43.4582 17.1044 43.3685 16.9095 43.3685 16.7044V15.8323C43.3685 14.5979 42.8993 13.4259 42.0474 12.5329C41.6067 12.0708 40.8895 12.0258 40.3785 12.4269C39.0158 13.4965 36.7124 14.7711 33.4761 14.7711C30.2347 14.7711 27.9208 13.4928 26.5503 12.4207C26.0401 12.0213 25.3243 12.068 24.8847 12.5293C24.0292 13.4262 23.5603 14.5981 23.5603 15.8325V16.7047C23.5603 16.9097 23.4706 17.1049 23.3148 17.2385C23.159 17.3721 22.9528 17.4309 22.7497 17.3994C22.554 17.3693 22.3613 17.3538 22.1763 17.3538C21.521 17.3538 20.873 17.5302 20.3017 17.8637C20.0843 17.9906 19.8155 17.992 19.5972 17.8665C19.3787 17.7414 19.244 17.5088 19.244 17.2568V12.8223C19.244 6.68152 23.6377 1.46545 29.6913 0.420048C35.0224 -0.500202 39.4594 0.118266 41.866 2.11683C43.2832 3.29358 44.0227 4.90233 44.0651 6.89948C45.4418 6.91383 47.7073 7.82142 47.7073 13.6301V17.2709C47.7073 17.5234 47.5718 17.7569 47.3521 17.8817C47.2452 17.9433 47.1251 17.974 47.005 17.974ZM44.775 15.9473C45.2942 15.9498 45.8092 16.032 46.3022 16.1892V13.6298C46.3022 10.2461 45.475 8.30517 44.0325 8.30517C43.2866 8.30517 42.6715 7.71202 42.6614 6.98273C42.6395 5.38608 42.0699 4.11286 40.9688 3.19824C38.8789 1.46292 34.8562 0.954704 29.9318 1.80577C24.554 2.73473 20.6508 7.36748 20.6508 12.8223V16.1816C21.1368 16.0294 21.6436 15.9495 22.1543 15.9473V15.8323C22.1543 14.2348 22.7616 12.7185 23.8641 11.562C24.8088 10.5715 26.3348 10.466 27.4174 11.3129C28.6132 12.2489 30.6354 13.3646 33.4763 13.3646C36.3111 13.3646 38.3223 12.2531 39.5106 11.3205C40.5942 10.4694 42.1222 10.5735 43.0653 11.5618C44.1678 12.718 44.775 14.2345 44.775 15.832V15.9473Z" fill="black"/>
<path d="M18.1564 58.6055C17.768 58.6055 17.4533 58.2908 17.4533 57.9024V51.5371C17.4533 51.1487 17.768 50.834 18.1564 50.834C18.5448 50.834 18.8595 51.1487 18.8595 51.5371V57.9024C18.8595 58.2908 18.5448 58.6055 18.1564 58.6055Z" fill="black"/>
<path d="M48.773 71.7045C48.3846 71.7045 48.0698 71.3898 48.0698 71.0014V63.29C48.0698 62.9016 48.3846 62.5869 48.773 62.5869C49.1614 62.5869 49.4761 62.9016 49.4761 63.29V71.0014C49.4761 71.3898 49.1614 71.7045 48.773 71.7045Z" fill="black"/>
<path d="M59.38 59.9642H57.0448C55.0474 59.9642 53.4226 58.3395 53.4226 56.342C53.4226 55.9536 53.7373 55.6389 54.1257 55.6389C54.5141 55.6389 54.8288 55.9536 54.8288 56.342C54.8288 57.5641 55.8231 58.558 57.0448 58.558H59.38C60.6018 58.558 61.596 57.5641 61.596 56.342V55.1746C61.596 53.9525 60.6018 52.9586 59.38 52.9586H57.0448C55.0474 52.9586 53.4226 51.3338 53.4226 49.3364C53.4226 47.3389 55.0474 45.7139 57.0448 45.7139H59.38C61.3775 45.7139 63.0022 47.3386 63.0022 49.3361C63.0022 49.7245 62.6875 50.0392 62.2991 50.0392C61.9107 50.0392 61.596 49.7245 61.596 49.3361C61.596 48.1141 60.6018 47.1201 59.38 47.1201H57.0448C55.8231 47.1201 54.8288 48.1141 54.8288 49.3361C54.8288 50.5581 55.8231 51.5523 57.0448 51.5523H59.38C61.3775 51.5523 63.0022 53.1771 63.0022 55.1746V56.342C63.0022 58.3395 61.3772 59.9642 59.38 59.9642Z" fill="black"/>
<path d="M58.2126 61.1315C57.8242 61.1315 57.5094 60.8168 57.5094 60.4284V45.249C57.5094 44.8606 57.8242 44.5459 58.2126 44.5459C58.601 44.5459 58.9157 44.8606 58.9157 45.249V60.4284C58.9157 60.8168 58.6007 61.1315 58.2126 61.1315Z" fill="black"/>
<path d="M60.4493 66.6109H55.9755C51.8614 66.6109 48.1523 64.4981 46.0536 60.9594C43.9552 57.4208 43.8801 53.1528 45.8533 49.5427L50.2729 41.4567C50.7071 40.6625 51.2643 39.9391 51.9342 39.2987C51.5312 38.8405 51.1833 38.345 50.8956 37.8185L50.13 36.4181C49.7436 35.7108 49.7582 34.8752 50.1694 34.1819C50.5803 33.4889 51.3068 33.0752 52.1125 33.0752H64.312C65.1178 33.0752 65.8443 33.4889 66.2552 34.1819C66.6661 34.8752 66.681 35.7111 66.2946 36.4181L65.5293 37.8185C65.2416 38.3447 64.8937 38.8405 64.4903 39.2987C65.1603 39.9388 65.7174 40.6625 66.1517 41.4567L70.5713 49.5427C72.5445 53.1528 72.4697 57.4208 70.371 60.9594C68.2726 64.4981 64.5635 66.6109 60.4493 66.6109ZM52.1125 34.482C51.6741 34.482 51.4533 34.7742 51.379 34.8997C51.3045 35.0254 51.1538 35.3592 51.3641 35.744L52.1294 37.1443C52.4669 37.7614 52.9057 38.3289 53.4338 38.8307C53.5804 38.9699 53.66 39.1654 53.6521 39.3673C53.6445 39.5695 53.55 39.7583 53.3933 39.8859C52.6061 40.5264 51.9713 41.2821 51.507 42.1314L47.0874 50.2174C45.3547 53.3874 45.4205 57.135 47.2632 60.2423C49.106 63.3498 52.3628 65.2049 55.9755 65.2049H60.4493C64.062 65.2049 67.3189 63.3498 69.1616 60.2423C71.0044 57.135 71.0702 53.3874 69.3374 50.2174L64.9178 42.1314C64.4535 41.2818 63.8187 40.5264 63.0315 39.8859C62.8746 39.7583 62.7803 39.5695 62.7728 39.3673C62.7649 39.1654 62.8445 38.9699 62.991 38.8307C63.5192 38.3287 63.9582 37.7611 64.2954 37.1443L65.0607 35.744C65.2711 35.3592 65.1203 35.0254 65.0458 34.8997C64.9713 34.7742 64.7508 34.482 64.3123 34.482H52.1125Z" fill="black"/>
<path d="M63.4627 39.9268H52.9622C52.5738 39.9268 52.2591 39.612 52.2591 39.2236C52.2591 38.8352 52.5738 38.5205 52.9622 38.5205H63.4624C63.8508 38.5205 64.1655 38.8352 64.1655 39.2236C64.1655 39.612 63.8508 39.9268 63.4627 39.9268Z" fill="black"/>
<path d="M19.4943 72.0001H8.76881C8.38041 72.0001 8.06569 71.6854 8.06569 71.297V66.9053C8.06569 66.5169 8.38041 66.2021 8.76881 66.2021H20.4533C20.8418 66.2021 21.1565 66.5169 21.1565 66.9053V70.3379C21.1565 71.2545 20.4109 72.0001 19.4943 72.0001ZM9.47194 70.5939H19.4943C19.6355 70.5939 19.7502 70.4791 19.7502 70.3379V67.6084H9.47194V70.5939Z" fill="black"/>
<path d="M20.4533 67.6088H8.76881C8.38041 67.6088 8.06569 67.2941 8.06569 66.9057V62.5137C8.06569 62.1253 8.38041 61.8105 8.76881 61.8105H20.4533C20.8418 61.8105 21.1565 62.1253 21.1565 62.5137V66.9057C21.1565 67.2941 20.8418 67.6088 20.4533 67.6088ZM9.47194 66.2025H19.7502V63.2168H9.47194V66.2025Z" fill="black"/>
<path d="M20.4533 63.2159H8.76881C8.38041 63.2159 8.06569 62.9012 8.06569 62.5128V58.1211C8.06569 57.7327 8.38041 57.418 8.76881 57.418H19.4943C20.4109 57.418 21.1565 58.1633 21.1565 59.0799V62.5128C21.1565 62.9009 20.8418 63.2159 20.4533 63.2159ZM9.47194 61.8097H19.7502V59.0799C19.7502 58.939 19.6355 58.8242 19.4943 58.8242H9.47194V61.8097Z" fill="black"/>
<path d="M12.3877 58.8246H0.703125C0.314719 58.8246 0 58.5099 0 58.1215V54.6886C0 53.772 0.745594 53.0264 1.66219 53.0264H11.4286C12.3452 53.0264 13.0908 53.772 13.0908 54.6886V58.1215C13.0908 58.5099 12.7761 58.8246 12.3877 58.8246ZM1.40625 57.4184H11.6845V54.6886C11.6845 54.5474 11.5698 54.4326 11.4286 54.4326H1.66219C1.521 54.4326 1.40625 54.5474 1.40625 54.6886V57.4184Z" fill="black"/>
<path d="M8.76881 72.0001H1.66219C0.745594 72.0001 0 71.2545 0 70.3379V66.9053C0 66.5169 0.314719 66.2021 0.703125 66.2021H8.76881C9.15722 66.2021 9.47194 66.5169 9.47194 66.9053V71.297C9.47194 71.6854 9.15722 72.0001 8.76881 72.0001ZM1.40625 67.6084V70.3379C1.40625 70.4791 1.521 70.5939 1.66219 70.5939H8.06569V67.6084H1.40625Z" fill="black"/>
<path d="M8.76881 67.6088H0.703125C0.314719 67.6088 0 67.2941 0 66.9057V62.5137C0 62.1253 0.314719 61.8105 0.703125 61.8105H8.76881C9.15722 61.8105 9.47194 62.1253 9.47194 62.5137V66.9057C9.47194 67.2941 9.15722 67.6088 8.76881 67.6088ZM1.40625 66.2025H8.06569V63.2168H1.40625V66.2025Z" fill="black"/>
<path d="M8.76881 63.2159H0.703125C0.314719 63.2159 0 62.9012 0 62.5128V58.1211C0 57.7327 0.314719 57.418 0.703125 57.418H8.76881C9.15722 57.418 9.47194 57.7327 9.47194 58.1211V62.5128C9.47194 62.9009 9.15722 63.2159 8.76881 63.2159ZM1.40625 61.8097H8.06569V58.8242H1.40625V61.8097Z" fill="black"/>
<path d="M30.697 72.0001H19.5013C19.114 72.0001 18.7996 71.687 18.7982 71.2998C18.7968 70.9125 19.1087 70.5969 19.4957 70.5938C19.636 70.5927 19.7499 70.4782 19.7499 70.3384V59.0808C19.7499 58.9397 19.6352 58.8249 19.494 58.8249H12.3877C11.9993 58.8249 11.6845 58.5102 11.6845 58.1218V54.6891C11.6845 54.5479 11.5698 54.4332 11.4286 54.4332H9.74869C9.55519 54.4332 9.37013 54.3536 9.23738 54.2127C9.10463 54.0721 9.03572 53.8825 9.04697 53.6896L9.40022 47.5982C9.52988 45.2681 11.1389 43.3182 13.4041 42.7478L19.7215 41.1576C21.8348 40.6258 23.2872 40.0236 24.9455 39.224C25.1438 39.1284 25.3758 39.1312 25.5724 39.2319C25.7684 39.3329 25.9059 39.5199 25.9436 39.7373L31.39 71.1774C31.4255 71.3819 31.3687 71.5917 31.2351 71.75C31.1015 71.9084 30.9046 72.0001 30.697 72.0001ZM21.1368 70.5938H29.8617L24.7154 40.8854C23.321 41.5216 21.9153 42.0551 20.0649 42.5208L13.7475 44.1107C12.0825 44.5298 10.8998 45.9633 10.8042 47.6773L10.494 53.0267H11.4289C12.3455 53.0267 13.0911 53.7723 13.0911 54.6888V57.4184H19.4946C20.4112 57.4184 21.1568 58.164 21.1568 59.0806V70.3382C21.1565 70.4251 21.1497 70.5106 21.1368 70.5938Z" fill="black"/>
<path d="M56.8392 71.9995H36.2323C36.0247 71.9995 35.8279 71.9079 35.6943 71.749C35.5607 71.5906 35.5039 71.3805 35.5393 71.1763L40.9854 39.7362C41.0231 39.5191 41.1607 39.3318 41.3567 39.2308C41.553 39.1304 41.7847 39.1273 41.9836 39.223C43.6418 40.0225 45.0942 40.6247 47.2075 41.1565L50.5738 42.004C50.7847 42.0571 50.9594 42.205 51.0466 42.4045C51.1338 42.6039 51.1237 42.8322 51.0193 43.0232L47.0872 50.2173C45.3544 53.3873 45.4202 57.1349 47.2629 60.2422C49.1057 63.3497 52.3626 65.2048 55.9752 65.2048H57.8863C58.259 65.2048 58.5667 65.4954 58.5883 65.8672L58.8189 69.8443C58.8504 70.4063 58.6437 70.9651 58.2522 71.3791C57.8739 71.779 57.3719 71.9995 56.8392 71.9995ZM37.0676 70.5933H56.8389C57.031 70.5933 57.1669 70.48 57.2307 70.4125C57.3559 70.28 57.4248 70.0975 57.4152 69.9239L57.2228 66.6108H55.9752C51.8611 66.6108 48.152 64.498 46.0533 60.9594C43.9549 57.4207 43.8798 53.1527 45.853 49.5426L49.3495 43.1458L46.8644 42.5203C45.0141 42.0546 43.6084 41.5208 42.2139 40.8849L37.0676 70.5933Z" fill="black"/>
<path d="M26.6603 48.6976C26.5719 48.6976 26.4833 48.6807 26.3987 48.647C26.1723 48.5564 26.0092 48.3548 25.9675 48.1143L24.5661 40.0233C24.4974 39.7426 24.6077 39.4392 24.8591 39.2712C24.8833 39.2549 24.91 39.2397 24.9359 39.2265C24.9432 39.2229 24.9505 39.2195 24.9578 39.2161C25.1466 39.125 25.3364 39.0325 25.5293 38.9374C26.0401 38.6854 26.4814 38.3012 26.8054 37.8262C26.9331 37.6386 27.1437 37.5244 27.3704 37.5193C27.5937 37.5081 27.8125 37.6189 27.9487 37.8003L31.5636 42.6204C31.9011 43.0707 32.042 43.6247 31.9607 44.1813C31.8791 44.7379 31.5852 45.2287 31.133 45.5631L27.0782 48.5598C26.9556 48.6507 26.8088 48.6976 26.6603 48.6976ZM26.0336 40.257L27.1586 46.7522L30.2968 44.4325C30.4456 44.3225 30.5423 44.1611 30.5691 43.978C30.5958 43.7952 30.5494 43.6126 30.4386 43.4647L27.3527 39.35C26.9992 39.6937 26.5936 39.9811 26.1512 40.1994C26.1121 40.2185 26.073 40.2376 26.0336 40.257Z" fill="black"/>
<path d="M40.2691 48.6982C40.1209 48.6982 39.9741 48.6512 39.8512 48.5606L35.7964 45.5639C35.3438 45.2295 35.0499 44.7385 34.9684 44.1821C34.8868 43.6256 35.028 43.0712 35.3655 42.6212L38.9804 37.8011C39.1165 37.6197 39.3328 37.5101 39.5587 37.5202C39.7856 37.5252 39.996 37.6394 40.1237 37.827C40.4477 38.3021 40.889 38.6865 41.3997 38.9382C41.5915 39.0327 41.7805 39.125 41.9684 39.2156C42.003 39.2313 42.0365 39.2499 42.0685 39.2712C42.3157 39.4361 42.4268 39.7322 42.3658 40.0087L40.9615 48.1149C40.9199 48.3551 40.7568 48.5567 40.5304 48.6476C40.446 48.6816 40.3574 48.6982 40.2691 48.6982ZM39.5764 39.3503L36.4905 43.465C36.3794 43.6129 36.333 43.7954 36.36 43.9782C36.3867 44.1613 36.4835 44.3231 36.6323 44.433L39.7704 46.7525L40.8954 40.2573C40.8563 40.2382 40.817 40.2188 40.7779 40.1994C40.3355 39.9814 39.9299 39.694 39.5764 39.3503Z" fill="black"/>
<path d="M35.685 44.8674H31.2443C31.0326 44.8674 30.8318 44.7718 30.6984 44.6073C30.5651 44.4428 30.5128 44.2265 30.5564 44.0192C30.5809 43.903 30.598 43.6766 30.4391 43.4643L26.8242 38.6445C26.6439 38.404 26.6363 38.0755 26.8054 37.8272C26.8833 37.7124 26.9587 37.5839 27.0287 37.4444C27.259 36.9877 27.3859 36.4578 27.3859 35.9527V33.8655C27.3859 33.6129 27.5214 33.3795 27.7408 33.2546C27.9602 33.1295 28.2302 33.1314 28.4473 33.2605C29.968 34.1617 31.7031 34.6378 33.4645 34.6378C35.226 34.6378 36.961 34.1617 38.4818 33.2605C38.6992 33.1314 38.9689 33.1292 39.1882 33.2546C39.4076 33.3795 39.5432 33.6127 39.5432 33.8655V35.9527C39.5432 36.4575 39.67 36.9874 39.9004 37.4444C39.9707 37.5839 40.0458 37.7124 40.1237 37.8266C40.293 38.0753 40.2857 38.404 40.1051 38.6445L36.4899 43.4643C36.3308 43.6766 36.3482 43.903 36.3727 44.0192C36.4162 44.2265 36.3642 44.4428 36.2306 44.6073C36.097 44.7718 35.8968 44.8674 35.685 44.8674ZM31.9379 43.4612H34.9912C35.0511 43.1588 35.1773 42.8711 35.3652 42.6208L38.6969 38.1785C38.6792 38.1456 38.6617 38.1118 38.6446 38.0781V38.0778C38.3172 37.4281 38.1369 36.6738 38.1369 35.9529V35.0257C36.6728 35.695 35.0783 36.0446 33.4643 36.0446C31.8502 36.0446 30.2558 35.695 28.7916 35.0257V35.9529C28.7916 36.6842 28.6161 37.4188 28.2839 38.0778C28.2668 38.1118 28.2493 38.1456 28.2316 38.1788L31.5636 42.6208C31.7517 42.8714 31.878 43.1588 31.9379 43.4612Z" fill="black"/>
<path d="M35.3273 49.4353H31.6021C31.3374 49.4353 31.095 49.2865 30.9752 49.0502L29.3552 45.8575C29.1999 45.5515 29.2882 45.178 29.5644 44.9738L30.2974 44.4321C30.4658 44.3075 30.5314 44.1388 30.5564 44.0192C30.6248 43.6938 30.9119 43.4609 31.2443 43.4609H35.685C36.0174 43.4609 36.3046 43.6938 36.3729 44.0189C36.3983 44.1387 36.4635 44.3072 36.6323 44.4324L37.3649 44.9738C37.6408 45.178 37.7294 45.5515 37.5742 45.8575L35.9542 49.0502C35.8343 49.2862 35.5919 49.4353 35.3273 49.4353ZM32.0335 48.029H34.8955L36.0512 45.7514L35.7964 45.5633L35.7961 45.563C35.5463 45.3782 35.3433 45.14 35.1987 44.8672H31.7306C31.5861 45.14 31.383 45.3779 31.1333 45.563L30.8782 45.7514L32.0335 48.029Z" fill="black"/>
<path d="M36.2323 71.9997H30.697C30.355 71.9997 30.0625 71.7536 30.0043 71.4166L28.8914 64.9923C28.8796 64.924 28.8779 64.854 28.8866 64.785L30.8922 48.7431C30.8922 48.7395 30.8922 48.7361 30.8922 48.7324C30.8922 48.344 31.2069 48.0293 31.5953 48.0293H35.3275C35.6822 48.0293 35.9812 48.2931 36.025 48.645L38.043 64.7848C38.0517 64.8537 38.05 64.9237 38.0382 64.992L36.9253 71.4166C36.8668 71.7536 36.5743 71.9997 36.2323 71.9997ZM31.2888 70.5934H35.6406L36.6345 64.8556L34.7065 49.4355H32.2228L30.2948 64.8554L31.2888 70.5934Z" fill="black"/>
</g>
<defs>
<clipPath id="clip0_513_7273">
<rect width="72" height="72" fill="white"/>
</clipPath>
</defs>
</svg>
