<svg width="67" height="73" viewBox="0 0 67 73" fill="none" xmlns="http://www.w3.org/2000/svg">
<path d="M29.9821 45.5371L26.6605 47.9921L29.5841 64.8694L31.6021 48.7296L29.9821 45.5371Z" fill="#EDB311"/>
<path d="M36.9473 45.5371L35.3273 48.7296L37.3452 64.8694L40.2688 47.9921L36.9473 45.5371Z" fill="#EDB311"/>
<path d="M42.5565 12.045C41.8629 11.3176 40.7351 11.2507 39.9445 11.8711C38.6944 12.8524 36.5316 14.0652 33.4764 14.0652C30.4138 14.0652 28.2395 12.8465 26.984 11.8641C26.1939 11.2459 25.0687 11.3151 24.3762 12.0413L24.3726 12.0452C23.4 13.0653 22.8572 14.4207 22.8572 15.83V24.7321C22.8572 30.5661 27.6303 35.3392 33.4643 35.3392C39.2982 35.3392 44.0713 30.5661 44.0713 24.7321V15.8297C44.0719 14.4204 43.5291 13.0651 42.5565 12.045Z" fill="#F9D0B4"/>
<path d="M44.7525 16.6475C44.5207 16.6475 44.2938 16.6669 44.0719 16.7015V24.7314C44.0719 24.9708 44.0609 25.2073 44.0452 25.4427C44.2761 25.4798 44.5112 25.5046 44.7525 25.5046C47.1982 25.5046 49.1811 23.5218 49.1811 21.076C49.1811 18.6303 47.1982 16.6475 44.7525 16.6475Z" fill="#F9D0B4"/>
<path d="M22.8575 24.7314C22.8575 23.6326 22.8575 18.8862 22.8575 16.7015C22.6356 16.6671 22.4086 16.6475 22.1768 16.6475C19.7311 16.6475 17.7483 18.6303 17.7483 21.076C17.7483 23.5218 19.7311 25.5046 22.1768 25.5046C22.4182 25.5046 22.6533 25.4801 22.8842 25.4427C22.8684 25.2076 22.8575 24.9705 22.8575 24.7314Z" fill="#F9D0B4"/>
<path d="M44.0322 7.59926C43.677 7.59926 43.369 7.32533 43.3643 6.97011C43.283 1.05964 36.5333 -0.0507373 29.8117 1.10998C24.1127 2.09408 19.9477 7.03592 19.9477 12.819V17.2535C20.603 16.8704 21.3629 16.6471 22.1768 16.6471C22.4086 16.6471 22.6356 16.6665 22.8575 16.7011V15.8292C22.8575 14.4199 23.4 13.0645 24.3728 12.0444L24.3765 12.0405C25.0687 11.3146 26.1942 11.2451 26.9843 11.8633C28.2398 12.8457 30.4141 14.0644 33.4766 14.0644C36.5318 14.0644 38.6947 12.8516 39.9448 11.8703C40.7354 11.2496 41.8632 11.3165 42.5568 12.0441C43.5294 13.0642 44.0722 14.4196 44.0722 15.8289V16.7008C44.2941 16.6662 44.521 16.6468 44.7528 16.6468C45.5766 16.6468 46.3449 16.8757 47.0053 17.2675C47.0053 16.03 47.0053 14.7588 47.0053 13.6265C47.005 8.33445 45.0939 7.59926 44.0322 7.59926Z" fill="#5B5D60"/>
<path d="M19.4943 71.2943H8.7688V66.9023H20.4533V70.3353C20.4533 70.8649 20.0239 71.2943 19.4943 71.2943Z" fill="#F5C84C"/>
<path d="M8.76881 62.5107H20.4533V66.9027H8.76881V62.5107Z" fill="#EDB311"/>
<path d="M20.4533 62.5102H8.76881V58.1182H19.4943C20.0239 58.1182 20.4533 58.5476 20.4533 59.0772V62.5102Z" fill="#F5C84C"/>
<path d="M12.3877 58.1186H0.703125V54.6856C0.703125 54.156 1.13259 53.7266 1.66219 53.7266H11.4286C11.9582 53.7266 12.3877 54.156 12.3877 54.6856V58.1186Z" fill="#F5C84C"/>
<path d="M0.703125 66.9023V70.3353C0.703125 70.8649 1.13259 71.2943 1.66219 71.2943H8.76881V66.9023H0.703125Z" fill="#EDB311"/>
<path d="M0.703125 62.5107H8.76881V66.9027H0.703125V62.5107Z" fill="#F5C84C"/>
<path d="M0.703125 58.1182H8.76881V62.5102H0.703125V58.1182Z" fill="#EDB311"/>
<path d="M11.4286 53.7267C11.9582 53.7267 12.3877 54.1562 12.3877 54.6858V58.1187H19.4943C20.0239 58.1187 20.4533 58.5482 20.4533 59.0778V70.3354C20.4533 70.8627 20.0278 71.29 19.5013 71.2939H30.697L25.2506 39.8535C23.6236 40.6382 22.093 41.282 19.8931 41.8358L13.5757 43.426C11.6215 43.9179 10.2142 45.6234 10.1019 47.6354L9.74869 53.7267H11.4286Z" fill="#3EBEBA"/>
<path d="M55.9755 65.9049C47.7489 65.9049 42.5247 57.0958 46.4704 49.8773L50.4025 42.6832L47.0363 41.8358C44.8363 41.282 43.3057 40.6379 41.6787 39.8535L36.2323 71.2936H56.8392C57.5741 71.2936 58.1583 70.6155 58.1172 69.8817L57.8866 65.9049H55.9755Z" fill="#3EBEBA"/>
<path d="M26.6605 47.9915L30.715 44.9948C31.3366 44.5355 31.4651 43.6577 31.0013 43.0395L27.3864 38.2197C27.0023 38.7834 26.476 39.2519 25.8404 39.5655C25.641 39.6639 25.4447 39.7596 25.2492 39.8538C25.2498 39.8535 25.2501 39.8532 25.2506 39.8532L26.6605 47.9915Z" fill="#F5C84C"/>
<path d="M40.2688 47.9915L36.2143 44.9948C35.5927 44.5355 35.4642 43.6577 35.928 43.0395L39.5429 38.2197C39.9271 38.7834 40.4533 39.2519 41.0889 39.5655C41.2883 39.6639 41.4847 39.7596 41.6801 39.8538C41.6796 39.8535 41.6793 39.8532 41.6787 39.8532L40.2688 47.9915Z" fill="#F5C84C"/>
<path d="M39.2729 37.7586C38.9942 37.2057 38.8406 36.5692 38.8406 35.9504V33.8633C37.2614 34.799 35.4237 35.339 33.4648 35.339C31.5059 35.339 29.6682 34.799 28.089 33.8633V35.9504C28.089 36.5537 27.9427 37.1907 27.6564 37.7586C27.576 37.9181 27.4868 38.0728 27.3862 38.2204L31.0011 43.0402C31.2517 43.3743 31.3239 43.7832 31.2441 44.1621H35.6847C35.6048 43.7832 35.6771 43.3746 35.9277 43.0402L39.5426 38.2204C39.4425 38.0728 39.3531 37.9181 39.2729 37.7586Z" fill="#F9D0B4"/>
<path d="M36.2143 44.9948C35.9288 44.7838 35.7528 44.4832 35.685 44.1611C34.1193 44.1611 32.7921 44.1611 31.2443 44.1611C31.1766 44.4832 31.0005 44.7835 30.715 44.9948L29.9821 45.5364L31.6021 48.7289H35.3272L36.9472 45.5364L36.2143 44.9948Z" fill="#3EBEBA"/>
<path d="M37.3452 64.8693L35.3272 48.7295C35.2403 48.7295 31.4111 48.7295 31.6021 48.7295L29.5841 64.8693L30.697 71.2936H36.2323L37.3452 64.8693Z" fill="#3EBEBA"/>
<path d="M14.0662 6.24063C13.1943 6.07188 12.4912 5.39687 12.3224 4.525C12.3224 4.49688 12.238 4.49688 12.238 4.525C12.0693 5.39687 11.3662 6.07188 10.4943 6.24063C10.4662 6.24063 10.4662 6.29687 10.4943 6.325C11.3662 6.49375 12.0693 7.16875 12.238 8.04062C12.238 8.06875 12.3224 8.06875 12.3224 8.04062C12.4912 7.16875 13.1943 6.49375 14.0662 6.325C14.0943 6.29687 14.0943 6.24063 14.0662 6.24063Z" fill="#FC657E"/>
<path d="M10.9724 30.7941H11.6193V31.441C11.6193 31.9473 12.013 32.341 12.5193 32.341C12.9974 32.341 13.4193 31.9473 13.4193 31.4691V31.441V30.7941H14.0662C14.5724 30.7941 14.9662 30.4004 14.9662 29.8941C14.9662 29.416 14.5724 28.9941 14.0943 28.9941H14.0662H13.4193V28.3473C13.4193 27.841 13.0255 27.4473 12.5193 27.4473C12.0412 27.4473 11.6193 27.841 11.6193 28.3191V28.3473V28.9941H10.9724C10.4662 28.9941 10.0724 29.3879 10.0724 29.8941C10.0443 30.3723 10.438 30.7941 10.9724 30.7941C10.9443 30.7941 10.9443 30.7941 10.9724 30.7941Z" fill="#87D147"/>
<path d="M3.77241 43.1127C4.30053 43.1127 4.72866 42.6846 4.72866 42.1564C4.72866 41.6283 4.30053 41.2002 3.77241 41.2002C3.24429 41.2002 2.81616 41.6283 2.81616 42.1564C2.81616 42.6846 3.24429 43.1127 3.77241 43.1127Z" fill="#F5C84C"/>
<path d="M54.1162 7.25332C54.6443 7.25332 55.0724 6.82519 55.0724 6.29707C55.0724 5.76895 54.6443 5.34082 54.1162 5.34082C53.588 5.34082 53.1599 5.76895 53.1599 6.29707C53.1599 6.82519 53.588 7.25332 54.1162 7.25332Z" fill="#3EBEBA"/>
<path d="M60.9786 22.2723C62.2443 22.0473 63.2286 21.0629 63.4818 19.8254C63.4818 19.7691 63.5943 19.7691 63.5943 19.8254C63.8474 21.0629 64.8318 22.0473 66.0974 22.2723C66.1536 22.2723 66.1536 22.3566 66.0974 22.3848C64.8318 22.6098 63.8474 23.5941 63.5943 24.8316C63.5943 24.8879 63.4818 24.8879 63.4818 24.8316C63.2286 23.5941 62.2443 22.6098 60.9786 22.3848C60.9224 22.3566 60.9224 22.2723 60.9786 22.2723Z" fill="#F5C84C"/>
<path d="M33.4645 36.0418C27.2281 36.0418 22.1543 30.9681 22.1543 24.7316V15.8295C22.1543 14.232 22.7616 12.7158 23.8641 11.5593C24.8088 10.5687 26.3348 10.4633 27.4174 11.3101C28.6132 12.2461 30.6354 13.3618 33.4763 13.3618C36.3111 13.3618 38.3223 12.2503 39.5106 11.3177C40.5942 10.4666 42.1222 10.5707 43.0653 11.559C44.1678 12.7152 44.775 14.2317 44.775 15.8292V24.7314C44.775 30.9681 39.7012 36.0418 33.4645 36.0418ZM25.7721 12.1468C25.4464 12.1468 25.1249 12.2748 24.8853 12.5262C24.0297 13.4231 23.5609 14.5951 23.5609 15.8295V24.7316C23.5609 30.1927 28.0038 34.6356 33.4648 34.6356C38.9258 34.6356 43.3687 30.1927 43.3687 24.7316V15.8295C43.3687 14.5951 42.8996 13.4231 42.0477 12.5302C41.6078 12.0684 40.8901 12.0231 40.3788 12.4241C39.0161 13.4937 36.7127 14.7684 33.4763 14.7684C30.2349 14.7684 27.9211 13.4901 26.5506 12.4179C26.3188 12.2363 26.044 12.1468 25.7721 12.1468Z" fill="black"/>
<path d="M44.7525 26.2074C44.4966 26.2074 44.2285 26.1844 43.9335 26.1371C43.5749 26.0795 43.319 25.758 43.3434 25.3957C43.3606 25.1409 43.3685 24.9297 43.3685 24.7314V16.7015C43.3685 16.3547 43.6213 16.0596 43.9642 16.0065C44.2305 15.9654 44.4957 15.9443 44.7522 15.9443C47.5819 15.9443 49.8839 18.2466 49.8839 21.076C49.8839 23.9054 47.5822 26.2074 44.7525 26.2074ZM44.775 17.3506V24.7314C44.775 24.7545 44.775 24.7778 44.7747 24.8012C46.8189 24.7891 48.4779 23.1227 48.4779 21.076C48.4779 19.0294 46.8188 17.363 44.775 17.3506Z" fill="black"/>
<path d="M22.1768 26.2074C19.3472 26.2074 17.0452 23.9054 17.0452 21.076C17.0452 18.2466 19.3472 15.9443 22.1768 15.9443C22.4333 15.9443 22.6986 15.9651 22.9649 16.0065C23.3077 16.0594 23.5606 16.3544 23.5606 16.7015V24.7317C23.5606 24.9297 23.5685 25.1409 23.5856 25.3957C23.6098 25.7577 23.3547 26.0789 22.9964 26.1368C22.7019 26.1844 22.4339 26.2074 22.1768 26.2074ZM22.1543 17.3506C20.1105 17.363 18.4514 19.0294 18.4514 21.076C18.4514 23.1227 20.1105 24.7891 22.1546 24.8012C22.1546 24.7778 22.1543 24.7545 22.1543 24.7314V17.3506Z" fill="black"/>
<path d="M33.6189 29.4676C32.2599 29.4676 30.9842 28.9129 30.2063 27.9845C29.9568 27.687 29.9959 27.2434 30.2937 26.9943C30.5916 26.7445 31.0351 26.7844 31.284 27.0817C31.7984 27.6954 32.6711 28.0616 33.6189 28.0616C34.5668 28.0616 35.4395 27.6951 35.9539 27.0817C36.2031 26.7844 36.6466 26.7448 36.9442 26.9943C37.242 27.2437 37.2811 27.6873 37.0316 27.9845C36.2534 28.9132 34.9777 29.4676 33.6189 29.4676Z" fill="black"/>
<path d="M38.4044 22.9908C39.1915 22.9908 39.8295 22.3528 39.8295 21.5657C39.8295 20.7787 39.1915 20.1406 38.4044 20.1406C37.6173 20.1406 36.9793 20.7787 36.9793 21.5657C36.9793 22.3528 37.6173 22.9908 38.4044 22.9908Z" fill="black"/>
<path d="M28.8335 22.9908C29.6205 22.9908 30.2586 22.3528 30.2586 21.5657C30.2586 20.7787 29.6205 20.1406 28.8335 20.1406C28.0464 20.1406 27.4084 20.7787 27.4084 21.5657C27.4084 22.3528 28.0464 22.9908 28.8335 22.9908Z" fill="black"/>
<path d="M47.005 17.9711C46.881 17.9711 46.757 17.9384 46.6464 17.8726C46.0704 17.5309 45.4154 17.3506 44.7525 17.3506C44.5677 17.3506 44.3748 17.3661 44.179 17.3962C43.9765 17.4277 43.7698 17.3686 43.614 17.2353C43.4582 17.1014 43.3685 16.9065 43.3685 16.7015V15.8293C43.3685 14.5949 42.8993 13.423 42.0474 12.53C41.6067 12.0679 40.8895 12.0229 40.3785 12.424C39.0158 13.4936 36.7124 14.7682 33.4761 14.7682C30.2347 14.7682 27.9208 13.4899 26.5503 12.4178C26.0401 12.0184 25.3243 12.0651 24.8847 12.5263C24.0292 13.4232 23.5603 14.5952 23.5603 15.8296V16.7018C23.5603 16.9068 23.4706 17.102 23.3148 17.2356C23.159 17.3692 22.9528 17.428 22.7498 17.3965C22.554 17.3664 22.3613 17.3509 22.1763 17.3509C21.521 17.3509 20.873 17.5272 20.3018 17.8608C20.0843 17.9876 19.8155 17.9891 19.5972 17.8636C19.3787 17.7385 19.244 17.5059 19.244 17.2539V12.8194C19.244 6.67859 23.6377 1.46252 29.6913 0.417118C35.0224 -0.503132 39.4594 0.115337 41.866 2.1139C43.2833 3.29065 44.0227 4.8994 44.0651 6.89655C45.4418 6.9109 47.7073 7.81849 47.7073 13.6271V17.2679C47.7073 17.5205 47.5718 17.7539 47.3521 17.8788C47.2452 17.9404 47.1251 17.9711 47.005 17.9711ZM44.775 15.9444C45.2942 15.9469 45.8092 16.029 46.3022 16.1862V13.6269C46.3022 10.2431 45.475 8.30224 44.0325 8.30224C43.2866 8.30224 42.6715 7.70909 42.6614 6.9798C42.6395 5.38315 42.0699 4.10993 40.9689 3.19531C38.8789 1.45999 34.8562 0.951774 29.9318 1.80284C24.554 2.73181 20.6508 7.36455 20.6508 12.8194V16.1786C21.1368 16.0265 21.6436 15.9466 22.1543 15.9444V15.8293C22.1543 14.2318 22.7616 12.7156 23.8641 11.5591C24.8088 10.5686 26.3348 10.4631 27.4174 11.3099C28.6133 12.2459 30.6354 13.3616 33.4763 13.3616C36.3111 13.3616 38.3223 12.2501 39.5106 11.3175C40.5942 10.4665 42.1223 10.5705 43.0653 11.5588C44.1678 12.7151 44.775 14.2316 44.775 15.8291V15.9444Z" fill="black"/>
<path d="M18.1564 58.6026C17.768 58.6026 17.4532 58.2878 17.4532 57.8994V51.5342C17.4532 51.1458 17.768 50.8311 18.1564 50.8311C18.5448 50.8311 18.8595 51.1458 18.8595 51.5342V57.8994C18.8595 58.2878 18.5448 58.6026 18.1564 58.6026Z" fill="black"/>
<path d="M48.773 71.7015C48.3846 71.7015 48.0698 71.3868 48.0698 70.9984V63.2871C48.0698 62.8987 48.3846 62.584 48.773 62.584C49.1614 62.584 49.4761 62.8987 49.4761 63.2871V70.9984C49.4761 71.3868 49.1614 71.7015 48.773 71.7015Z" fill="black"/>
<path d="M19.4943 71.9972H8.76881C8.38041 71.9972 8.06569 71.6825 8.06569 71.2941V66.9023C8.06569 66.5139 8.38041 66.1992 8.76881 66.1992H20.4533C20.8418 66.1992 21.1565 66.5139 21.1565 66.9023V70.335C21.1565 71.2516 20.4109 71.9972 19.4943 71.9972ZM9.47194 70.5909H19.4943C19.6355 70.5909 19.7502 70.4762 19.7502 70.335V67.6055H9.47194V70.5909Z" fill="black"/>
<path d="M20.4533 67.6059H8.76881C8.38041 67.6059 8.06569 67.2911 8.06569 66.9027V62.5107C8.06569 62.1223 8.38041 61.8076 8.76881 61.8076H20.4533C20.8418 61.8076 21.1565 62.1223 21.1565 62.5107V66.9027C21.1565 67.2911 20.8418 67.6059 20.4533 67.6059ZM9.47194 66.1996H19.7502V63.2139H9.47194V66.1996Z" fill="black"/>
<path d="M20.4533 63.213H8.76881C8.38041 63.213 8.06569 62.8983 8.06569 62.5099V58.1182C8.06569 57.7298 8.38041 57.415 8.76881 57.415H19.4943C20.4109 57.415 21.1565 58.1604 21.1565 59.0769V62.5099C21.1565 62.898 20.8418 63.213 20.4533 63.213ZM9.47194 61.8068H19.7502V59.0769C19.7502 58.936 19.6355 58.8213 19.4943 58.8213H9.47194V61.8068Z" fill="black"/>
<path d="M12.3877 58.8217H0.703125C0.314719 58.8217 0 58.507 0 58.1186V54.6856C0 53.769 0.745594 53.0234 1.66219 53.0234H11.4286C12.3452 53.0234 13.0908 53.769 13.0908 54.6856V58.1186C13.0908 58.507 12.7761 58.8217 12.3877 58.8217ZM1.40625 57.4154H11.6845V54.6856C11.6845 54.5444 11.5698 54.4297 11.4286 54.4297H1.66219C1.521 54.4297 1.40625 54.5444 1.40625 54.6856V57.4154Z" fill="black"/>
<path d="M8.76881 71.9972H1.66219C0.745594 71.9972 0 71.2516 0 70.335V66.9023C0 66.5139 0.314719 66.1992 0.703125 66.1992H8.76881C9.15722 66.1992 9.47194 66.5139 9.47194 66.9023V71.2941C9.47194 71.6825 9.15722 71.9972 8.76881 71.9972ZM1.40625 67.6055V70.335C1.40625 70.4762 1.521 70.5909 1.66219 70.5909H8.06569V67.6055H1.40625Z" fill="black"/>
<path d="M8.76881 67.6049H0.703125C0.314719 67.6049 0 67.2902 0 66.9018V62.5098C0 62.1214 0.314719 61.8066 0.703125 61.8066H8.76881C9.15722 61.8066 9.47194 62.1214 9.47194 62.5098V66.9018C9.47194 67.2902 9.15722 67.6049 8.76881 67.6049ZM1.40625 66.1986H8.06569V63.2129H1.40625V66.1986Z" fill="black"/>
<path d="M8.76881 63.213H0.703125C0.314719 63.213 0 62.8983 0 62.5099V58.1182C0 57.7298 0.314719 57.415 0.703125 57.415H8.76881C9.15722 57.415 9.47194 57.7298 9.47194 58.1182V62.5099C9.47194 62.898 9.15722 63.213 8.76881 63.213ZM1.40625 61.8068H8.06569V58.8213H1.40625V61.8068Z" fill="black"/>
<path d="M30.697 71.9971H19.5013C19.114 71.9971 18.7996 71.6841 18.7982 71.2968C18.7968 70.9095 19.1087 70.594 19.4957 70.5909C19.636 70.5898 19.7499 70.4753 19.7499 70.3355V59.0779C19.7499 58.9367 19.6352 58.822 19.494 58.822H12.3877C11.9992 58.822 11.6845 58.5073 11.6845 58.1189V54.6862C11.6845 54.545 11.5698 54.4303 11.4286 54.4303H9.74868C9.55518 54.4303 9.37012 54.3507 9.23737 54.2098C9.10462 54.0691 9.03572 53.8796 9.04697 53.6866L9.40022 47.5953C9.52987 45.2652 11.1389 43.3153 13.4041 42.7449L19.7215 41.1547C21.8348 40.6229 23.2872 40.0207 24.9455 39.2211C25.1437 39.1255 25.3758 39.1283 25.5724 39.229C25.7684 39.3299 25.9059 39.517 25.9436 39.7344L31.39 71.1745C31.4255 71.3789 31.3687 71.5888 31.2351 71.7471C31.1015 71.9054 30.9046 71.9971 30.697 71.9971ZM21.1368 70.5909H29.8617L24.7154 40.8824C23.321 41.5186 21.9153 42.0522 20.0649 42.5179L13.7475 44.1078C12.0825 44.5269 10.8998 45.9604 10.8042 47.6744L10.494 53.0237H11.4289C12.3455 53.0237 13.0911 53.7693 13.0911 54.6859V57.4154H19.4946C20.4112 57.4154 21.1567 58.161 21.1567 59.0776V70.3352C21.1565 70.4221 21.1497 70.5076 21.1368 70.5909Z" fill="black"/>
<path d="M56.8392 71.9966H36.2323C36.0248 71.9966 35.8279 71.9049 35.6943 71.746C35.5607 71.5877 35.5039 71.3776 35.5393 71.1734L40.9854 39.7333C41.0231 39.5162 41.1607 39.3289 41.3567 39.2279C41.553 39.1275 41.7847 39.1244 41.9836 39.22C43.6418 40.0196 45.0942 40.6218 47.2075 41.1536L50.5738 42.001C50.7847 42.0542 50.9594 42.2021 51.0466 42.4015C51.1338 42.6009 51.1237 42.8293 51.0193 43.0203L47.0872 50.2144C45.3544 53.3843 45.4202 57.132 47.2629 60.2392C49.1057 63.3468 52.3626 65.2019 55.9752 65.2019H57.8863C58.259 65.2019 58.5667 65.4924 58.5883 65.8642L58.8189 69.8414C58.8504 70.4033 58.6437 70.9622 58.2522 71.3762C57.8739 71.7761 57.3719 71.9966 56.8392 71.9966ZM37.0676 70.5904H56.8389C57.031 70.5904 57.1669 70.477 57.2307 70.4095C57.3559 70.2771 57.4248 70.0945 57.4152 69.921L57.2228 66.6079H55.9752C51.8611 66.6079 48.152 64.4951 46.0533 60.9564C43.9549 57.4177 43.8798 53.1498 45.853 49.5396L49.3495 43.1429L46.8644 42.5174C45.0141 42.0516 43.6084 41.5178 42.2139 40.8819L37.0676 70.5904Z" fill="black"/>
<path d="M26.6603 48.6947C26.5719 48.6947 26.4834 48.6778 26.3987 48.6441C26.1723 48.5535 26.0092 48.3518 25.9675 48.1114L24.5661 40.0204C24.4974 39.7397 24.6077 39.4362 24.8591 39.2683C24.8833 39.252 24.91 39.2368 24.9359 39.2236C24.9432 39.2199 24.9505 39.2166 24.9579 39.2132C25.1466 39.1221 25.3364 39.0295 25.5294 38.9345C26.0401 38.6825 26.4814 38.2983 26.8054 37.8233C26.9331 37.6357 27.1437 37.5215 27.3704 37.5164C27.5937 37.5052 27.8125 37.616 27.9487 37.7974L31.5636 42.6174C31.9011 43.0677 32.042 43.6218 31.9607 44.1784C31.8791 44.735 31.5852 45.2258 31.133 45.5602L27.0782 48.5569C26.9556 48.6477 26.8088 48.6947 26.6603 48.6947ZM26.0336 40.2541L27.1586 46.7493L30.2968 44.4295C30.4456 44.3196 30.5424 44.1581 30.5691 43.975C30.5958 43.7922 30.5494 43.6097 30.4386 43.4618L27.3527 39.3471C26.9992 39.6908 26.5936 39.9782 26.1512 40.1964C26.1121 40.2156 26.073 40.2347 26.0336 40.2541Z" fill="black"/>
<path d="M40.2691 48.6952C40.1209 48.6952 39.9741 48.6483 39.8512 48.5577L35.7964 45.561C35.3438 45.2266 35.0499 44.7355 34.9684 44.1792C34.8868 43.6226 35.028 43.0683 35.3655 42.6183L38.9804 37.7982C39.1165 37.6168 39.3328 37.5071 39.5587 37.5172C39.7856 37.5223 39.996 37.6365 40.1237 37.8241C40.4477 38.2991 40.889 38.6836 41.3997 38.9353C41.5915 39.0298 41.7805 39.1221 41.9684 39.2126C42.003 39.2284 42.0365 39.2469 42.0685 39.2683C42.3158 39.4331 42.4268 39.7293 42.3658 40.0057L40.9615 48.1119C40.9199 48.3521 40.7568 48.5538 40.5304 48.6446C40.446 48.6787 40.3574 48.6952 40.2691 48.6952ZM39.5764 39.3473L36.4905 43.462C36.3794 43.61 36.333 43.7925 36.36 43.9753C36.3867 44.1584 36.4835 44.3201 36.6323 44.4301L39.7704 46.7496L40.8954 40.2544C40.8563 40.2352 40.817 40.2158 40.7779 40.1964C40.3355 39.9785 39.9299 39.691 39.5764 39.3473Z" fill="black"/>
<path d="M35.685 44.8645H31.2444C31.0326 44.8645 30.8318 44.7689 30.6984 44.6044C30.5651 44.4398 30.5128 44.2235 30.5564 44.0163C30.5809 43.9001 30.598 43.6737 30.4391 43.4614L26.8242 38.6416C26.6439 38.4011 26.6364 38.0726 26.8054 37.8243C26.8833 37.7095 26.9587 37.581 27.0287 37.4415C27.259 36.9847 27.3859 36.4549 27.3859 35.9497V33.8626C27.3859 33.61 27.5214 33.3766 27.7408 33.2517C27.9602 33.1265 28.2302 33.1285 28.4473 33.2576C29.968 34.1587 31.7031 34.6349 33.4645 34.6349C35.226 34.6349 36.961 34.1587 38.4818 33.2576C38.6992 33.1285 38.9689 33.1263 39.1883 33.2517C39.4076 33.3766 39.5432 33.6097 39.5432 33.8626V35.9497C39.5432 36.4546 39.67 36.9844 39.9004 37.4415C39.9707 37.581 40.0458 37.7095 40.1237 37.8237C40.293 38.0723 40.2857 38.4011 40.1051 38.6416L36.4899 43.4614C36.3308 43.6737 36.3482 43.9001 36.3727 44.0163C36.4163 44.2235 36.3642 44.4398 36.2306 44.6044C36.097 44.7689 35.8968 44.8645 35.685 44.8645ZM31.9379 43.4583H34.9912C35.0511 43.1559 35.1774 42.8682 35.3652 42.6179L38.6969 38.1755C38.6792 38.1426 38.6618 38.1089 38.6446 38.0751V38.0749C38.3172 37.4252 38.1369 36.6709 38.1369 35.95V35.0227C36.6728 35.6921 35.0784 36.0417 33.4643 36.0417C31.8502 36.0417 30.2558 35.6921 28.7916 35.0227V35.95C28.7916 36.6813 28.6161 37.4159 28.2839 38.0749C28.2668 38.1089 28.2493 38.1426 28.2316 38.1758L31.5636 42.6179C31.7517 42.8685 31.878 43.1559 31.9379 43.4583Z" fill="black"/>
<path d="M35.3272 49.4323H31.6021C31.3374 49.4323 31.095 49.2835 30.9752 49.0473L29.3552 45.8545C29.1999 45.5485 29.2882 45.175 29.5644 44.9709L30.2974 44.4292C30.4658 44.3046 30.5314 44.1358 30.5564 44.0163C30.6247 43.6909 30.9119 43.458 31.2443 43.458H35.685C36.0174 43.458 36.3046 43.6909 36.3729 44.016C36.3982 44.1358 36.4635 44.3043 36.6322 44.4294L37.3649 44.9709C37.6408 45.175 37.7294 45.5485 37.5742 45.8545L35.9541 49.0473C35.8343 49.2833 35.5919 49.4323 35.3272 49.4323ZM32.0335 48.0261H34.8955L36.0512 45.7485L35.7964 45.5604L35.7961 45.5601C35.5463 45.3753 35.3433 45.1371 35.1987 44.8643H31.7306C31.5861 45.1371 31.383 45.375 31.1332 45.5601L30.8782 45.7485L32.0335 48.0261Z" fill="black"/>
<path d="M36.2323 71.9967H30.697C30.355 71.9967 30.0625 71.7506 30.0043 71.4137L28.8914 64.9894C28.8796 64.9211 28.8779 64.851 28.8866 64.7821L30.8922 48.7402C30.8922 48.7365 30.8922 48.7331 30.8922 48.7295C30.8922 48.3411 31.2069 48.0264 31.5954 48.0264H35.3275C35.6822 48.0264 35.9812 48.2902 36.025 48.642L38.043 64.7818C38.0517 64.8507 38.05 64.9208 38.0382 64.9891L36.9253 71.4137C36.8668 71.7506 36.5743 71.9967 36.2323 71.9967ZM31.2888 70.5905H35.6406L36.6345 64.8527L34.7065 49.4326H32.2228L30.2949 64.8524L31.2888 70.5905Z" fill="black"/>
<path d="M66 51.6296C66 55.3259 64.2954 58.6178 61.6385 60.7473C60.0138 62.0488 59.1 64.0556 59.1 66.1524V68.9171C59.1 70.903 57.5095 72.5115 55.5457 72.5115H53.4546C51.4908 72.5115 49.9002 70.903 49.9002 68.9171V66.1508C49.9002 64.0436 48.9642 62.0398 47.3353 60.7249C44.6696 58.5757 42.9693 55.2553 43.0004 51.5323C43.0508 45.2915 48.052 40.15 54.2217 40.0033C60.7012 39.8491 66 45.1134 66 51.6296Z" fill="#FFE177"/>
<path d="M54.5 68.362C53.8866 68.362 53.3893 67.8592 53.3893 67.2388L53.3894 58.5998C53.3894 57.9794 53.8868 57.4766 54.5002 57.4766C55.1137 57.4766 55.6109 57.9794 55.6109 58.5998L55.6108 67.2388C55.6108 67.8592 55.1134 68.362 54.5 68.362Z" fill="#FFD15B"/>
<path d="M55.9813 72.4847C55.8391 72.5027 55.6939 72.5117 55.5458 72.5117H53.4548C51.4909 72.5117 49.9004 70.9033 49.9004 68.9173V66.1511C49.9004 64.0438 48.9644 62.04 47.3354 60.7251C44.6697 58.5759 42.9694 55.2556 43.0006 51.5325C43.0509 45.2917 48.0522 40.1502 54.2219 40.0035C54.8217 39.9886 55.4111 40.0215 55.9857 40.0964C50.3787 40.8302 46.0099 45.7007 45.9625 51.5325C45.9314 55.2557 47.6315 58.5759 50.2974 60.7251C51.9265 62.04 52.8624 64.0438 52.8624 66.1511V68.9173C52.8624 70.7535 54.2233 72.2677 55.9813 72.4847Z" fill="#FFD15B"/>
<path d="M59.1002 67.2383V68.9171C59.1002 70.903 57.5097 72.5115 55.5458 72.5115H53.4547C51.4909 72.5115 49.9004 70.903 49.9004 68.9171V67.2383H59.1002Z" fill="#D8ECFE"/>
<path d="M55.9813 72.4845C55.8391 72.5025 55.6939 72.5115 55.5458 72.5115H53.4547C51.4909 72.5115 49.9004 70.903 49.9004 68.9171V67.2383H52.8623V68.9171C52.8623 70.7533 54.2233 72.2675 55.9813 72.4845Z" fill="#B3DAFE"/>
<path d="M59.1003 68.3627H49.8998C49.2863 68.3627 48.789 67.8599 48.789 67.2395C48.789 66.6191 49.2863 66.1162 49.8998 66.1162H59.1003C59.7138 66.1162 60.2111 66.6191 60.2111 67.2395C60.2111 67.8599 59.7138 68.3627 59.1003 68.3627Z" fill="#EAF6FF"/>
<path d="M59.1005 49.2605H56.818V46.9523C56.818 45.6578 55.7803 44.6084 54.5002 44.6084C53.2202 44.6084 52.1824 45.6578 52.1824 46.9523V49.2605H49.8999C48.6199 49.2605 47.5822 50.3099 47.5822 51.6044C47.5822 52.8988 48.6199 53.9483 49.8999 53.9483H52.1824V56.2565C52.1824 57.5509 53.2202 58.6004 54.5002 58.6004C55.7803 58.6004 56.818 57.5509 56.818 56.2565V53.9481H59.1005C60.3805 53.9481 61.4182 52.8987 61.4182 51.6042C61.4182 50.3098 60.3805 49.2605 59.1005 49.2605Z" fill="#F7BA4D"/>
<path d="M20.0352 52.4562H14.2252V50.5225C14.2252 49.6834 13.4804 49.001 12.5649 49.001H8.43351C7.51802 49.001 6.77325 49.6834 6.77325 50.5225V52.4562H0.963184C0.433475 52.4562 0 52.8538 0 53.3413V65.6614C0 66.1489 0.434312 66.5465 0.963184 66.5465H20.0352C20.5649 66.5465 20.9984 66.1489 20.9984 65.6614V53.3413C20.9992 52.8538 20.5649 52.4562 20.0352 52.4562ZM8.113 50.5225C8.113 50.3605 8.25694 50.2292 8.43434 50.2292H12.5657C12.7398 50.2292 12.8871 50.3636 12.8871 50.5225V52.4562H8.12723L8.113 50.5225Z" fill="#ECBA78"/>
<path d="M0.96387 52.4561H20.0359C20.5656 52.4561 20.9991 52.8537 20.9991 53.3412V65.6613C20.9991 66.1487 20.5648 66.5464 20.0359 66.5464H0.96387C0.434161 66.5464 0.000687853 66.1487 0.000687853 65.6613V53.3412C-0.000148971 52.8537 0.434161 52.4561 0.96387 52.4561Z" fill="#DDB091"/>
<path d="M20.0351 52.4561H0.963869C0.434159 52.4561 0.000686646 52.8537 0.000686646 53.3412V57.8289C2.76471 58.5113 5.87686 58.9328 9.18231 59.021V57.247C9.18231 57.0359 9.37143 56.8632 9.60156 56.8632H11.3991C11.6292 56.8632 11.8183 57.0359 11.8183 57.247V59.021C15.1246 58.932 18.2367 58.5113 20.9999 57.8289V53.3412C20.9991 52.8537 20.5648 52.4561 20.0351 52.4561Z" fill="#A57453"/>
<path d="M14.2252 52.4562H12.8862V50.5225C12.8862 50.3636 12.739 50.2292 12.5649 50.2292H8.43351C8.25611 50.2292 8.11217 50.3605 8.11217 50.5225V52.4562H6.77325V50.5225C6.77325 49.6834 7.51803 49.001 8.43351 49.001H12.5649C13.4804 49.001 14.2252 49.6834 14.2252 50.5225V52.4562Z" fill="black"/>
<path d="M20.0352 52.4561H18.7172C19.2469 52.4561 19.6804 52.8537 19.6804 53.3412V65.6613C19.6804 66.1487 19.2461 66.5464 18.7172 66.5464H20.0352C20.5649 66.5464 20.9984 66.1487 20.9984 65.6613V53.3412C20.9993 52.8537 20.5649 52.4561 20.0352 52.4561Z" fill="#A57453"/>
<path d="M20.0352 52.4561H18.7172C19.2469 52.4561 19.6804 52.8537 19.6804 53.3412V58.1283C20.1273 58.0346 20.5675 57.9356 20.9984 57.8289V53.3412C20.9993 52.8537 20.5649 52.4561 20.0352 52.4561Z" fill="#A57453"/>
<path d="M9.60089 56.8633H11.3984C11.6285 56.8633 11.8176 57.036 11.8176 57.2471V59.8479C11.8176 60.5104 11.2243 61.0539 10.4988 61.0539C9.77579 61.0539 9.18248 60.5104 9.18248 59.8479V57.2471C9.18165 57.036 9.37077 56.8633 9.60089 56.8633Z" fill="black"/>
<path d="M7.39333 50.5218V52.4555H8.11299V50.5218C8.11299 50.3598 8.25693 50.2285 8.43433 50.2285H7.71467C7.53726 50.2278 7.39333 50.3598 7.39333 50.5218Z" fill="black"/>
<path d="M12.565 49H11.8453C12.7608 49 13.5056 49.6824 13.5056 50.5215V52.4552H14.2252V50.5215C14.2252 49.6832 13.4804 49 12.565 49Z" fill="black"/>
<path d="M11.3983 56.8633H10.6787C10.9088 56.8633 11.0979 57.036 11.0979 57.2471V59.8479C11.0979 60.3968 10.6912 60.862 10.1389 61.0071C10.2536 61.037 10.3741 61.0547 10.4979 61.0547C11.2235 61.0547 11.8168 60.5112 11.8168 59.8487V57.2479C11.8176 57.036 11.6285 56.8633 11.3983 56.8633Z" fill="black"/>
<path d="M19.6812 58.1275V65.6605C19.6812 66.148 19.2469 66.5456 18.718 66.5456H20.036C20.5658 66.5456 20.9992 66.148 20.9992 65.6605V57.8281C20.5683 57.9348 20.1281 58.0339 19.6812 58.1275Z" fill="#DDB091"/>
</svg>
