<svg width="40" height="16" viewBox="0 0 40 16" fill="none" xmlns="http://www.w3.org/2000/svg">
<path d="M30.7297 14.2625C30.5364 14.0691 30.4133 13.8587 30.6946 13.5252L31.4489 12.5951C31.6247 12.3842 31.8527 12.2616 32.1861 12.5599C32.7125 13.0687 33.8013 13.6131 34.8363 13.6131C35.9422 13.6131 36.9602 13.0687 36.9602 11.9282V10.6641C36.4163 11.2783 35.6615 11.6645 34.6259 11.6645C32.5723 11.6645 31.1506 10.2432 31.1506 8.20724L31.133 6.57504V6.04821L30.4138 5.94275C29.7815 5.83728 29.6414 5.55704 29.6414 5.13568V4.27539C29.6414 3.76664 29.9046 3.4859 30.4138 3.4859H33.3096C33.8013 3.4859 34.0815 3.76714 34.0815 4.29297V7.66284C34.0815 8.48798 34.5556 9.08461 35.3632 9.08461C36.1878 9.08461 36.679 8.4704 36.679 7.64526V4.41601C36.679 3.90726 36.9602 3.62602 37.4865 3.62602H38.9781C39.4703 3.62602 39.7686 3.90726 39.7686 4.41601V11.3315C39.7686 14.2795 37.6623 15.7892 34.8017 15.7892C32.9761 15.7892 31.6247 15.1398 30.7297 14.2625ZM22.6907 12.4721C22.182 12.4721 21.9012 12.1908 21.9012 11.6821V4.41601C21.9012 3.90726 22.182 3.62602 22.6907 3.62602H23.6213C24.1301 3.62602 24.4108 3.90726 24.4108 4.41601V5.20549C25.0431 4.13527 25.9205 3.57329 27.0439 3.59087L27.9213 3.60844C28.4301 3.62602 28.7289 3.88969 28.7289 4.39843V5.10053C28.7289 5.5917 28.4301 5.89052 27.9213 5.89052H27.0439C25.587 5.89052 24.9728 6.55746 24.9728 8.06662V11.6826C24.9728 12.1913 24.6745 12.4721 24.1828 12.4721H22.6907ZM17.4431 8.0842C17.4431 6.94366 16.6536 6.08337 15.5829 6.08337C14.4946 6.08337 13.7222 6.94366 13.7222 8.0842C13.7222 9.22523 14.4946 10.085 15.5653 10.085C16.6184 10.085 17.4431 9.20765 17.4431 8.0842ZM10.6858 8.0842C10.6858 5.46916 12.5289 3.46833 15.0736 3.46833C16.2322 3.46833 17.2151 3.94192 17.9347 4.67917V4.31054C17.9347 3.81938 18.2155 3.52056 18.7418 3.52056H19.5845C20.0933 3.52056 20.374 3.81938 20.374 4.31054V11.6821C20.374 12.1913 20.0933 12.4721 19.5845 12.4721H18.7418C18.2331 12.4721 17.9347 12.2089 17.9347 11.7348V11.3833C17.2678 12.1737 16.285 12.7001 15.0736 12.7001C12.5465 12.7001 10.6858 10.6992 10.6858 8.0842ZM0.505826 11.0674C0.102546 10.7168 0.014658 10.3306 0.365707 9.92733L1.01507 9.11977C1.36662 8.73356 1.73475 8.68083 2.15611 8.97915C2.84063 9.57628 3.96409 10.085 4.91177 10.085C5.87703 10.085 6.50882 9.7164 6.50882 9.15492C6.50882 8.40009 5.59629 8.29462 4.4201 7.9265C2.68243 7.41725 0.699179 6.46957 0.699179 4.29297C0.699179 2.25748 2.50716 0.852783 5.1222 0.852783C6.66651 0.852783 8.01798 1.34496 8.94858 2.09928C9.36944 2.43276 9.49249 2.81896 9.15901 3.22274L8.5448 3.99465C8.21133 4.39843 7.80755 4.45167 7.40377 4.13527C6.82471 3.67926 6.06988 3.29255 5.19251 3.29255C4.38494 3.29255 3.8762 3.6441 3.8762 4.15285C3.8762 4.80221 4.70084 5.11811 5.56113 5.38127C7.49165 5.9779 9.70291 6.62777 9.70291 9.15492C9.70291 11.4541 7.57954 12.683 5.10462 12.683C3.20926 12.683 1.55897 12.0507 0.506328 11.0679L0.505826 11.0674Z" fill="#2BD8B5"/>
</svg>
