<svg width="273" height="110" viewBox="0 0 273 110" fill="none" xmlns="http://www.w3.org/2000/svg">
<g clip-path="url(#clip0_3_875)">
<path d="M29.1015 17.94C29.6174 18.339 30.3446 18.2923 30.8181 17.8508C36.7839 12.2982 42.7496 6.74977 48.7196 1.20138C49.3116 0.653754 48.6351 -0.292911 47.929 0.0933964C41.181 3.7612 34.4162 7.43748 27.182 11.3642C26.755 11.5977 26.4759 12.0392 26.4759 12.5274C26.4717 13.3128 26.5985 14.4505 27.2032 15.6518C27.7486 16.7301 28.4885 17.4645 29.1015 17.94Z" fill="#FCB52E"/>
<path d="M26.8353 69.0939V68.6396V64.3902V63.8384C26.8353 60.3616 24.0279 57.5471 20.5694 57.5471H19.3644C19.0769 57.5471 18.8444 57.7806 18.8444 58.0692V64.3902V68.5208V69.0939V71.7556V77.7624C18.8444 82.4703 19.1023 85.8622 19.6012 87.955C19.8887 89.3984 20.6455 90.8459 21.8716 92.2935C24.3915 95.4816 28.8225 97.0651 35.1519 97.0651C40.7625 97.0651 44.8341 95.5835 47.354 92.6162C48.7958 90.9563 49.7259 88.5493 50.1614 85.3697C50.3094 83.4976 50.3813 80.8826 50.3813 77.5502V69.9132C50.3728 69.9132 50.3686 69.9132 50.3644 69.9132V69.0981V64.3902V63.8384C50.3644 60.3616 47.5569 57.5471 44.0984 57.5471H42.8934C42.6059 57.5471 42.3734 57.7806 42.3734 58.0692V64.3902V69.0981V71.7598H42.3903V78.6369C42.3903 81.6765 42.2804 83.9179 42.069 85.3655C41.5616 88.6172 39.1516 90.2389 34.8348 90.2389C30.5137 90.2389 27.96 88.4305 27.1651 84.8179C26.9537 83.8075 26.8438 81.6043 26.8438 78.1997V71.7598V69.0939H26.8353Z" fill="#F7F7F7"/>
<path d="M64.0209 97.0693H68.0502C68.9677 97.0693 69.7076 96.3222 69.7076 95.4052V84.7457V75.1262C69.7076 73.9885 71.1917 73.5598 71.7836 74.5319L84.992 95.9274C85.4275 96.6321 86.2012 97.0651 87.0299 97.0651H91.2748C92.594 97.0651 93.6764 95.9826 93.6764 94.6538V72.8593V68.143V57.8909H92.0063C88.8691 57.8909 86.328 60.4423 86.328 63.5922V72.8593H86.3365V79.8426C86.3365 80.9803 84.8482 81.409 84.2521 80.4369L70.8408 58.532C70.4053 57.8188 69.6315 57.3815 68.8028 57.3815H64.7608C63.4332 57.3815 62.3593 58.4598 62.3593 59.7928V83.7608V84.9579V95.3967C62.3593 96.3222 63.1034 97.0693 64.0209 97.0693Z" fill="#F7F7F7"/>
<path d="M199.762 97.0693H203.791C204.709 97.0693 205.449 96.3222 205.449 95.4052V84.7457V75.1262C205.449 73.9885 206.933 73.5598 207.525 74.5319L220.733 95.9274C221.168 96.6321 221.942 97.0651 222.771 97.0651H227.016C228.335 97.0651 229.417 95.9826 229.417 94.6538V72.8593V68.143V57.8909H227.747C224.61 57.8909 222.069 60.4423 222.069 63.5922V72.8593H222.078V79.8426C222.078 80.9803 220.589 81.409 219.993 80.4369L206.582 58.532C206.146 57.8188 205.373 57.3815 204.544 57.3815H200.502C199.174 57.3815 198.1 58.4598 198.1 59.7928V83.7608V84.9579V95.3967C198.1 96.3222 198.844 97.0693 199.762 97.0693Z" fill="#F7F7F7"/>
<path d="M270.713 104.201C269.871 103.624 268.852 103.284 267.753 103.284H9.52999C8.74358 103.284 8.10514 102.643 8.10514 101.849V92.162V42.4429H8.09669C8.08823 41.3774 8.13474 40.3373 8.22776 39.3312C8.26581 38.86 8.325 38.393 8.39688 37.9388C8.71398 35.7865 9.29745 33.7786 10.1642 31.9362C11.3988 29.2957 13.5847 27.2071 16.2483 26.0439C16.2568 26.0355 16.2737 26.0355 16.2822 26.027C17.8677 25.3308 19.4405 24.6346 21.0007 23.9299C21.1444 23.8662 21.2966 23.8025 21.4404 23.7388C21.4488 23.7388 21.4488 23.7303 21.4573 23.7303C21.5038 23.828 21.563 23.9299 21.6095 24.0275C23.1696 26.685 27.4188 33.9017 28.6957 36.0625C29.1354 36.8139 30.5349 39.1911 31.8371 41.4028C32.4333 42.4174 33.0083 43.3981 33.4649 44.1622C33.4987 44.2174 33.5283 44.2726 33.5621 44.332C33.6002 44.3957 33.634 44.4594 33.6636 44.5145L22.3367 39.6666C18.9797 38.2317 15.1786 39.2803 12.9885 41.9972C12.2698 42.8844 12.5995 44.2301 13.6481 44.6801L34.0145 53.459C34.1837 53.5312 34.3401 53.6034 34.5092 53.6755C35.7692 54.2189 37.2448 53.7477 37.9593 52.5803C38.9148 51.0351 39.659 49.5238 40.1114 47.9955C40.2002 47.6899 40.2805 47.38 40.3524 47.0659C40.9358 44.3829 40.568 41.6066 38.8049 38.3973C38.0143 36.9582 37.2363 35.4979 36.4626 34.0418H36.4541C36.4372 34.0078 36.4203 33.9696 36.3992 33.9314L36.3907 33.9144C34.1752 29.7754 31.9597 25.6152 29.7527 21.4762C29.7358 21.4507 29.6089 21.2215 29.444 20.9073C29.2665 20.5889 29.1354 20.33 29.0466 20.1644C29.0001 20.0583 28.7126 20.1899 28.5435 20.1899C25.9686 20.1899 23.8884 18.1013 23.8884 15.516C23.8884 14.3953 24.2774 13.3637 24.9412 12.5614C25.0131 12.5147 25.03 12.4171 24.9877 12.3364C24.9496 12.2642 24.8608 12.2388 24.7805 12.2642C24.2478 12.4977 23.7108 12.7269 23.1781 12.9604L22.8652 13.0878C22.5481 13.2576 22.2183 13.4231 21.9012 13.5845C20.6497 14.217 19.4151 14.8325 18.1848 15.4311L13.2887 17.8169C12.8109 18.0503 12.3416 18.2966 11.8766 18.5683C11.0056 19.0649 10.1557 19.5786 9.30168 20.105C8.65479 20.4955 8.06709 20.971 7.5259 21.4974C5.03136 23.9723 3.15834 26.9227 1.90684 30.115C1.10775 32.1485 0.701854 34.0206 0.448172 35.9478C0.359383 36.5464 0.295962 37.162 0.232542 37.7902C0.152209 38.6393 0.0887887 39.5095 0.00845607 40.4137C0 40.4562 0 40.4986 0 40.5368V42.4429V43.0924V92.4549V107.597C0 108.926 1.07392 110.004 2.40152 110.004H272.565C272.806 110.004 273 109.809 273 109.567V108.557C273 106.744 272.095 105.148 270.713 104.201Z" fill="#F7F7F7"/>
<path d="M236.914 62.8747C237.717 63.5497 238.723 63.9912 239.827 64.1016C240.009 64.1228 240.195 64.1313 240.381 64.1313H244.296V64.1016H247.636V94.6581C247.636 95.9868 248.71 97.0651 250.038 97.0651H253.23C254.557 97.0651 255.631 95.9868 255.631 94.6581V64.1313H262.333H267.051H267.368V62.8323C267.368 62.5648 267.339 62.2974 267.288 62.0342C267.288 61.9918 267.288 61.9451 267.288 61.8984C266.861 59.381 264.709 57.4537 262.092 57.3858V57.3815H260.4H255.369H244.296H238.981H234.956V58.6805C234.956 60.0602 235.468 61.321 236.313 62.2804C236.495 62.4969 236.698 62.6922 236.914 62.8747Z" fill="#F7F7F7"/>
<path d="M160.095 97.0693H183.446C183.518 97.0693 183.586 97.0608 183.657 97.0566H185.277C186.194 97.0566 186.938 96.3094 186.938 95.3882V91.9836C186.938 91.0625 186.194 90.3153 185.277 90.3153C178.981 90.3238 172.681 90.3365 166.386 90.345C165.062 90.345 163.984 89.2668 163.984 87.9338V83.6802C163.984 81.4302 165.802 79.6048 168.043 79.6048H176.161H182.118H186.52C186.757 79.6048 186.951 79.4096 186.951 79.1718V77.9365C186.951 75.1389 184.693 72.872 181.907 72.872C176.732 72.8763 171.557 72.8805 166.386 72.8805C165.058 72.8805 163.984 71.8023 163.984 70.4693V66.5043C163.984 65.1756 165.058 64.0973 166.386 64.0973L185.294 64.1186C186.211 64.1186 186.955 63.3714 186.955 62.4502V59.0499C186.955 58.1287 186.211 57.3858 185.298 57.3858C176.33 57.3815 167.363 57.3773 158.395 57.3773C157.067 57.3773 155.993 58.4556 155.993 59.7885V92.9388C155.989 95.2142 157.837 97.0693 160.095 97.0693Z" fill="#F7F7F7"/>
<path d="M106.783 97.0566H112.001C112.618 97.0566 113.117 96.5557 113.117 95.9359V94.6581V90.4427V89.5172C113.117 89.4493 113.108 89.3771 113.096 89.3135C113.096 89.3135 113.096 89.3135 113.1 89.3135H113.117V74.7993C113.117 73.4748 115.007 73.2414 115.332 74.5319L117.438 82.8906C117.438 82.899 117.438 82.8991 117.446 82.9075C117.835 84.058 118.22 85.2127 118.609 86.3631L120.546 92.0898C120.82 93.1553 121.772 93.9067 122.871 93.9067H126.803C127.902 93.9067 128.854 93.1553 129.128 92.0898C129.775 90.1795 130.431 88.2734 131.086 86.3631C131.428 85.3527 131.779 84.3339 132.13 83.3151L136.553 65.7275V89.5172V92.9346H136.544V94.6284C136.544 94.6793 136.549 94.726 136.553 94.7769V95.9359C136.553 96.5557 137.052 97.0566 137.669 97.0566H142.886C143.504 97.0566 144.003 96.5557 144.003 95.9359V94.7685C144.007 94.7642 144.007 94.7642 144.011 94.76V94.6284V92.9346V90.4427H144.003V89.5172C144.003 89.3432 143.96 89.1776 143.888 89.029C143.969 88.8762 144.011 88.7022 144.011 88.5196V59.7928C144.011 58.464 142.937 57.3815 141.61 57.3815H133.762C132.672 57.3815 131.712 58.1244 131.437 59.19L125.962 80.3477C125.674 81.4684 124.089 81.4769 123.793 80.3562L118.136 59.173C117.848 58.1159 116.897 57.3858 115.819 57.3858H108.069C106.741 57.3858 105.667 58.464 105.667 59.797V89.5172V93.9449V95.9359C105.667 96.5557 106.166 97.0566 106.783 97.0566Z" fill="#F7F7F7"/>
</g>
<defs>
<clipPath id="clip0_3_875">
<rect width="273" height="110" fill="white"/>
</clipPath>
</defs>
</svg>
