<svg width="20" height="20" viewBox="0 0 20 20" fill="none" xmlns="http://www.w3.org/2000/svg">
<g clip-path="url(#clip0_1048_773)">
<path d="M6.05117 12.5304C5.57383 12.5304 5.1168 12.6124 4.69141 12.764V11.5159C4.69141 11.298 4.86953 11.1194 5.08789 11.1194H7.01328C7.23125 11.1194 7.40977 11.2976 7.40977 11.5159V12.764C6.98477 12.6124 6.52734 12.5304 6.05117 12.5304ZM11.8324 8.03037H9.90781C9.68867 8.03037 9.51016 8.2085 9.51016 8.42803V18.0956C9.51016 18.3136 9.68828 18.4921 9.90781 18.4921H11.8324C12.0516 18.4921 12.2301 18.314 12.2301 18.0956V8.42803C12.2301 8.2085 12.0516 8.03037 11.8324 8.03037ZM16.6523 4.94209H14.727C14.509 4.94209 14.3305 5.12022 14.3305 5.33858V18.0956C14.3305 18.3136 14.5086 18.4921 14.727 18.4921H16.6523C16.8703 18.4921 17.0488 18.314 17.0488 18.0956V5.33858C17.0488 5.12022 16.8707 4.94209 16.6523 4.94209ZM7.64258 14.9905C8.05 15.398 8.30234 15.9605 8.30234 16.5815C8.30234 17.2038 8.05 17.7663 7.64258 18.1737C7.23516 18.5812 6.67266 18.8335 6.05156 18.8335C5.4293 18.8335 4.8668 18.5812 4.45937 18.1737C4.05195 17.7663 3.79961 17.2038 3.79961 16.5815C3.79961 15.9605 4.05195 15.398 4.45937 14.9905C4.8668 14.5831 5.4293 14.3308 6.05156 14.3308C6.67266 14.3308 7.23516 14.5831 7.64258 14.9905ZM5.67266 15.9284C5.67266 15.8397 5.7125 15.7577 5.77656 15.6972C5.84531 15.6331 5.94258 15.5921 6.05117 15.5921C6.15859 15.5921 6.25586 15.6331 6.32461 15.6972C6.38867 15.7581 6.42852 15.8401 6.42852 15.9284C6.42852 16.1034 6.57031 16.2464 6.74648 16.2464C6.92148 16.2464 7.06328 16.1034 7.06328 15.9284C7.06328 15.6581 6.94687 15.4124 6.75859 15.2362C6.64883 15.1331 6.51602 15.0534 6.36758 15.0058V14.8265C6.36758 14.6515 6.22578 14.5085 6.05078 14.5085C5.87461 14.5085 5.73281 14.6515 5.73281 14.8265V15.0058C5.58438 15.0534 5.45156 15.1331 5.3418 15.2362C5.15352 15.4124 5.0375 15.6581 5.0375 15.9284C5.0375 16.1987 5.15391 16.4444 5.3418 16.6206C5.52461 16.7933 5.77578 16.8995 6.05039 16.8995C6.15781 16.8995 6.25508 16.9394 6.32383 17.0046C6.38789 17.0644 6.42773 17.1464 6.42773 17.2358C6.42773 17.3245 6.38789 17.4065 6.32383 17.4671C6.25508 17.5312 6.15781 17.5722 6.05039 17.5722C5.9418 17.5722 5.8457 17.5312 5.77578 17.4671C5.71172 17.4062 5.67188 17.3241 5.67188 17.2358C5.67188 17.0597 5.53008 16.9179 5.35508 16.9179C5.17891 16.9179 5.0375 17.0597 5.0375 17.2358C5.0375 17.5062 5.15391 17.7507 5.3418 17.928C5.45156 18.0312 5.58438 18.1108 5.73281 18.1573V18.3378C5.73281 18.5128 5.87461 18.6546 6.05078 18.6546C6.22578 18.6546 6.36758 18.5128 6.36758 18.3378V18.1573C6.51602 18.1108 6.64883 18.0312 6.75859 17.928C6.94687 17.7507 7.06328 17.5062 7.06328 17.2358C7.06328 16.9644 6.94687 16.7198 6.75859 16.5437C6.59258 16.3862 6.37109 16.2847 6.12539 16.2667C6.11211 16.2655 6.09883 16.2644 6.08437 16.2644H6.05117C5.94258 16.2644 5.84531 16.2233 5.77656 16.1593C5.7125 16.0991 5.67266 16.0171 5.67266 15.9284ZM9.46836 16.5819C9.46836 18.4698 7.93828 20.0003 6.05117 20.0003C4.16328 20.0003 2.63281 18.4702 2.63281 16.5819C2.63281 14.6952 4.16289 13.1647 6.05117 13.1647C7.93828 13.1647 9.46836 14.6952 9.46836 16.5819ZM8.93711 16.5819C8.93711 15.7858 8.61367 15.064 8.09219 14.5413C7.56953 14.0198 6.84766 13.6964 6.05156 13.6964C5.2543 13.6964 4.53242 14.0198 4.01094 14.5413C3.48828 15.064 3.16484 15.7858 3.16484 16.5819C3.16484 17.3792 3.48828 18.1011 4.01094 18.6226C4.53242 19.1452 5.2543 19.4687 6.05156 19.4687C6.84766 19.4687 7.56953 19.1452 8.09219 18.6226C8.61367 18.1011 8.93711 17.3792 8.93711 16.5819ZM17.1309 0.611623L14.8898 0.0104515C14.7203 -0.0336891 14.5465 0.0659203 14.5012 0.235061C14.4559 0.404592 14.5566 0.57842 14.7258 0.623733L16.2305 1.02686L4.53437 7.77998C4.38281 7.86631 4.33047 8.06006 4.41719 8.21201C4.50469 8.3624 4.69844 8.41475 4.84883 8.32842L16.5441 1.57608L16.1422 3.07764C16.0969 3.246 16.1977 3.41983 16.3668 3.46514C16.5352 3.51045 16.709 3.40967 16.7543 3.24053L17.3555 0.999514C17.4 0.829592 17.3004 0.656936 17.1309 0.611623Z" fill="#3EBEBA"/>
</g>
<defs>
<clipPath id="clip0_1048_773">
<rect width="20" height="20" fill="white"/>
</clipPath>
</defs>
</svg>
