<svg width="20" height="20" viewBox="0 0 20 20" fill="none" xmlns="http://www.w3.org/2000/svg">
<g clip-path="url(#clip0_698_5717)">
<path d="M14.766 8.71912C15.2467 8.39697 15.5914 7.91639 15.7434 7.34924C15.9095 6.72932 15.8253 6.08353 15.5062 5.53084C15.1871 4.97814 14.6699 4.58228 14.05 4.41615C13.4829 4.2642 12.8943 4.3224 12.375 4.57764L11.0369 2.25994C10.752 1.76654 10.2404 1.47896 9.67233 1.48865C9.10276 1.49908 8.60358 1.80584 8.33686 2.30924C8.1496 2.66291 7.9737 3.03029 7.78749 3.41928C7.02854 5.00463 6.16835 6.8015 4.3087 7.87517L1.91913 9.25478C1.09659 9.72967 0.507409 10.4995 0.260065 11.4225C0.0127606 12.3455 0.138073 13.3069 0.612956 14.1294C1.27315 15.2729 2.4751 15.9129 3.70936 15.9129C4.15952 15.9129 4.61393 15.8276 5.048 15.6507L6.7185 18.5441C7.06413 19.1427 7.69319 19.4777 8.33928 19.4777C8.65592 19.4777 8.97671 19.3972 9.2701 19.2278C9.70085 18.9791 10.0094 18.5762 10.1388 18.0932C10.2682 17.6102 10.2025 17.107 9.95378 16.6762L8.31003 13.8292C10.0406 13.0064 11.8571 13.146 13.4744 13.271C13.9048 13.3043 14.3112 13.3357 14.7115 13.3504C15.28 13.3707 15.7961 13.0922 16.0898 12.6041C16.3836 12.116 16.389 11.5301 16.1041 11.0367L14.766 8.719L14.766 8.71912ZM13.7973 5.35943C14.1652 5.45803 14.4718 5.69228 14.6605 6.01912C15.0247 6.65002 14.8482 7.44689 14.2761 7.87041L12.865 5.42638C13.1571 5.29955 13.4825 5.27506 13.7973 5.35943H13.7973ZM3.70776 14.9366C2.81135 14.9365 1.93823 14.4717 1.45874 13.6411C1.11428 13.0445 1.02358 12.3463 1.20342 11.6753C1.38323 11.0042 1.81085 10.445 2.40745 10.1005L4.37436 8.96494L6.96866 13.4529L4.99936 14.5899C4.59217 14.8249 4.14725 14.9366 3.70776 14.9366ZM9.19553 17.8405C9.13366 18.0715 8.98671 18.2638 8.78186 18.3821C8.35624 18.6278 7.81003 18.4815 7.56424 18.0559L5.91046 15.1914L7.45428 14.3001L9.10807 17.1646C9.22635 17.3694 9.25741 17.6095 9.19549 17.8405H9.19553ZM15.2532 12.1006C15.1421 12.2851 14.9631 12.3828 14.7472 12.3745C14.3668 12.3606 13.9699 12.3299 13.5498 12.2974C11.7848 12.1611 9.80038 12.0081 7.8228 12.9791L5.21171 8.46213C7.04358 7.23369 7.90374 5.43814 8.66835 3.84099C8.85014 3.46119 9.0219 3.10244 9.19987 2.76635C9.30069 2.57599 9.47483 2.469 9.69018 2.4651C9.69424 2.46502 9.69831 2.46498 9.70237 2.46498C9.91221 2.46498 10.0855 2.56525 10.1912 2.74826L15.2585 11.5252C15.3662 11.7117 15.3644 11.9161 15.2532 12.1006L15.2532 12.1006ZM13.9848 2.51326L14.9932 0.766698C15.128 0.533143 15.4266 0.453104 15.6601 0.587987C15.8937 0.722831 15.9737 1.02146 15.8389 1.25498L14.8305 3.00154C14.7401 3.15818 14.5759 3.24576 14.4072 3.24576C14.3243 3.24576 14.2404 3.22467 14.1635 3.18025C13.9299 3.04541 13.8499 2.74678 13.9848 2.51326ZM18.5181 4.35568L16.7293 5.38849C16.6524 5.43287 16.5684 5.454 16.4856 5.454C16.3169 5.454 16.1528 5.36642 16.0623 5.20978C15.9274 4.97623 16.0075 4.6776 16.241 4.54279L18.0298 3.50998C18.2633 3.3751 18.562 3.45517 18.6968 3.68869C18.8317 3.92221 18.7516 4.22088 18.5181 4.35568ZM19.8638 7.86889C19.8638 8.13853 19.6452 8.35717 19.3755 8.35717H17.3587C17.0891 8.35717 16.8705 8.13857 16.8705 7.86889C16.8705 7.5992 17.0891 7.3806 17.3587 7.3806H19.3755C19.6452 7.3806 19.8638 7.5992 19.8638 7.86889Z" fill="#3EBEBA"/>
</g>
<defs>
<clipPath id="clip0_698_5717">
<rect width="20" height="20" fill="white"/>
</clipPath>
</defs>
</svg>
