<svg width="24" height="24" viewBox="0 0 24 24" fill="none" xmlns="http://www.w3.org/2000/svg">
<g clip-path="url(#clip0_559_2333)">
<path d="M19.1496 0.00195312H4.84739C2.16872 0.00195312 0 2.17067 0 4.84934V19.1546C0 21.8302 2.16872 23.999 4.84739 23.999H19.1526C21.8283 23.999 24 21.8302 24 19.1516V4.84934C23.997 2.17067 21.8283 0.00195312 19.1496 0.00195312Z" fill="url(#paint0_linear_559_2333)"/>
<path d="M11.8961 5.51564L12.3821 4.67573C12.682 4.15078 13.351 3.97383 13.8759 4.27378C14.4009 4.57373 14.5778 5.24264 14.2779 5.76759L9.59542 13.8726H12.982C14.0799 13.8726 14.6948 15.1625 14.2179 16.0563H4.28913C3.68322 16.0563 3.19727 15.5704 3.19727 14.9645C3.19727 14.3586 3.68322 13.8726 4.28913 13.8726H7.0728L10.6364 7.69636L9.52352 5.76459C9.22356 5.23964 9.40052 4.57673 9.92547 4.27078C10.4504 3.97083 11.1133 4.14778 11.4193 4.67273L11.8961 5.51564Z" fill="white"/>
<path d="M7.68516 17.1812L6.6353 19.0019C6.33534 19.5269 5.66644 19.7038 5.14148 19.4039C4.61653 19.1039 4.43958 18.435 4.73953 17.9101L5.51944 16.5602C6.4013 16.2873 7.1182 16.4972 7.68516 17.1812Z" fill="white"/>
<path d="M16.7253 13.8787H19.5659C20.1718 13.8787 20.6578 14.3647 20.6578 14.9706C20.6578 15.5765 20.1718 16.0625 19.5659 16.0625H17.9881L19.053 17.9102C19.3529 18.4352 19.176 19.0981 18.651 19.404C18.1261 19.704 17.4632 19.527 17.1572 19.0021C15.3634 15.8915 14.0166 13.5638 13.1227 12.013C12.2078 10.4352 12.8618 8.85136 13.5067 8.31445C14.2236 9.54431 15.2945 11.4011 16.7253 13.8787Z" fill="white"/>
</g>
<defs>
<linearGradient id="paint0_linear_559_2333" x1="12" y1="0.00195313" x2="12" y2="23.999" gradientUnits="userSpaceOnUse">
<stop stop-color="#00BFFC"/>
<stop offset="1" stop-color="#0073F6"/>
</linearGradient>
<clipPath id="clip0_559_2333">
<rect width="24" height="24" fill="white"/>
</clipPath>
</defs>
</svg>
