<svg width="20" height="20" viewBox="0 0 20 20" fill="none" xmlns="http://www.w3.org/2000/svg">
<g clip-path="url(#clip0_4_1986)">
<path d="M6.1025 8.75H4.01917C3.67417 8.75 3.39417 8.47 3.39417 8.125C3.39417 7.78 3.67417 7.5 4.01917 7.5H6.1025C6.4475 7.5 6.7275 7.78 6.7275 8.125C6.7275 8.47 6.4475 8.75 6.1025 8.75Z" fill="#3EBEBA"/>
<path d="M16.1025 8.75H9.85248C9.50748 8.75 9.22748 8.47 9.22748 8.125C9.22748 7.78 9.50748 7.5 9.85248 7.5H16.1025C16.4475 7.5 16.7275 7.78 16.7275 8.125C16.7275 8.47 16.4475 8.75 16.1025 8.75Z" fill="#3EBEBA"/>
<path d="M6.1025 12.0833H4.01917C3.67417 12.0833 3.39417 11.8033 3.39417 11.4583C3.39417 11.1133 3.67417 10.8333 4.01917 10.8333H6.1025C6.4475 10.8333 6.7275 11.1133 6.7275 11.4583C6.7275 11.8033 6.4475 12.0833 6.1025 12.0833Z" fill="#3EBEBA"/>
<path d="M16.1025 12.0833H9.85248C9.50748 12.0833 9.22748 11.8033 9.22748 11.4583C9.22748 11.1133 9.50748 10.8333 9.85248 10.8333H16.1025C16.4475 10.8333 16.7275 11.1133 16.7275 11.4583C16.7275 11.8033 16.4475 12.0833 16.1025 12.0833Z" fill="#3EBEBA"/>
<path d="M6.1025 15.4167H4.01917C3.67417 15.4167 3.39417 15.1367 3.39417 14.7917C3.39417 14.4467 3.67417 14.1667 4.01917 14.1667H6.1025C6.4475 14.1667 6.7275 14.4467 6.7275 14.7917C6.7275 15.1367 6.4475 15.4167 6.1025 15.4167Z" fill="#3EBEBA"/>
<path d="M16.1025 15.4167H9.85248C9.50748 15.4167 9.22748 15.1367 9.22748 14.7917C9.22748 14.4467 9.50748 14.1667 9.85248 14.1667H16.1025C16.4475 14.1667 16.7275 14.4467 16.7275 14.7917C16.7275 15.1367 16.4475 15.4167 16.1025 15.4167Z" fill="#3EBEBA"/>
<path d="M17.7083 19.1666H2.29167C1.0275 19.1666 0 18.1391 0 16.8749V3.12492C0 1.86075 1.0275 0.833252 2.29167 0.833252H17.7083C18.9725 0.833252 20 1.86075 20 3.12492V16.8749C20 18.1391 18.9725 19.1666 17.7083 19.1666ZM2.29167 2.08325C1.7175 2.08325 1.25 2.55075 1.25 3.12492V16.8749C1.25 17.4491 1.7175 17.9166 2.29167 17.9166H17.7083C18.2825 17.9166 18.75 17.4491 18.75 16.8749V3.12492C18.75 2.55075 18.2825 2.08325 17.7083 2.08325H2.29167Z" fill="#3EBEBA"/>
<path d="M19.375 5H0.625C0.28 5 0 4.72 0 4.375C0 4.03 0.28 3.75 0.625 3.75H19.375C19.72 3.75 20 4.03 20 4.375C20 4.72 19.72 5 19.375 5Z" fill="#3EBEBA"/>
</g>
<defs>
<clipPath id="clip0_4_1986">
<rect width="20" height="20" fill="white"/>
</clipPath>
</defs>
</svg>
