<svg width="14" height="12" viewBox="0 0 14 12" fill="none" xmlns="http://www.w3.org/2000/svg">
<path fill-rule="evenodd" clip-rule="evenodd" d="M9.276 9.224L7.579 9.826C7.4635 9.867 7.335 9.838 7.2485 9.7515C7.162 9.665 7.133 9.5365 7.174 9.421L7.776 7.724C7.7795 7.7145 7.7845 7.706 7.792 7.699L12.2815 3.209C12.503 2.9875 12.8625 2.9875 13.084 3.209L13.791 3.916C14.0125 4.1375 14.0125 4.497 13.791 4.7185L9.301 9.208C9.294 9.2155 9.2855 9.2205 9.276 9.224ZM11 8.9235V10.5C11 10.898 10.842 11.2795 10.5605 11.5605C10.2795 11.842 9.898 12 9.5 12H1.5C1.102 12 0.7205 11.842 0.4395 11.5605C0.158 11.2795 0 10.898 0 10.5V3.5H10.5765L7.0845 6.992C6.9725 7.104 6.8865 7.24 6.8335 7.39L6.2315 9.0865C6.0615 9.5655 6.1825 10.099 6.5415 10.4585C6.901 10.8175 7.4345 10.9385 7.9135 10.7685L9.61 10.1665C9.76 10.1135 11 8.9235 11 8.9235ZM2.5 9.5H4.0845C4.3605 9.5 4.5845 9.276 4.5845 9C4.5845 8.724 4.3605 8.5 4.0845 8.5H2.5C2.224 8.5 2 8.724 2 9C2 9.276 2.224 9.5 2.5 9.5ZM2.5 7.5H5.0845C5.3605 7.5 5.5845 7.276 5.5845 7C5.5845 6.724 5.3605 6.5 5.0845 6.5H2.5C2.224 6.5 2 6.724 2 7C2 7.276 2.224 7.5 2.5 7.5ZM2.5 5.5H7.0845C7.3605 5.5 7.5845 5.276 7.5845 5C7.5845 4.724 7.3605 4.5 7.0845 4.5H2.5C2.224 4.5 2 4.724 2 5C2 5.276 2.224 5.5 2.5 5.5ZM0 2.5V1.5C0 1.102 0.158 0.7205 0.4395 0.4395C0.7205 0.158 1.102 0 1.5 0H9.5C9.898 0 10.2795 0.158 10.5605 0.4395C10.842 0.7205 11 1.102 11 1.5V2.5H0Z" fill="#3EBEBA"/>
</svg>
