<svg width="20" height="20" viewBox="0 0 20 20" fill="none" xmlns="http://www.w3.org/2000/svg">
<g clip-path="url(#clip0_184_2322)">
<mask id="mask0_184_2322" style="mask-type:luminance" maskUnits="userSpaceOnUse" x="0" y="0" width="20" height="20">
<path d="M20 0H0V20H20V0Z" fill="white"/>
<path d="M4.88281 7.42188C4.45133 7.42188 4.10156 7.77164 4.10156 8.20313C4.10156 8.63461 4.45133 8.98438 4.88281 8.98438C5.3143 8.98438 5.66406 8.63461 5.66406 8.20313C5.66406 7.77164 5.3143 7.42188 4.88281 7.42188Z" fill="white"/>
<path d="M8.28125 7.42188C7.84977 7.42188 7.5 7.77164 7.5 8.20313C7.5 8.63461 7.84977 8.98438 8.28125 8.98438C8.71273 8.98438 9.0625 8.63461 9.0625 8.20313C9.0625 7.77164 8.71273 7.42188 8.28125 7.42188Z" fill="white"/>
<path d="M11.6797 7.42188C11.2482 7.42188 10.8984 7.77164 10.8984 8.20313C10.8984 8.63461 11.2482 8.98438 11.6797 8.98438C12.1112 8.98438 12.4609 8.63461 12.4609 8.20313C12.4609 7.77164 12.1112 7.42188 11.6797 7.42188Z" fill="white"/>
<path d="M15.0781 7.42188C14.6466 7.42188 14.2969 7.77164 14.2969 8.20313C14.2969 8.63461 14.6466 8.98438 15.0781 8.98438C15.5096 8.98438 15.8594 8.63461 15.8594 8.20313C15.8594 7.77164 15.5096 7.42188 15.0781 7.42188Z" fill="white"/>
<path d="M5.66406 11.6016C5.66406 11.1701 5.3143 10.8203 4.88281 10.8203C4.45133 10.8203 4.10156 11.1701 4.10156 11.6016C4.10156 12.033 4.45133 12.3828 4.88281 12.3828C5.3143 12.3828 5.66406 12.033 5.66406 11.6016Z" fill="white"/>
<path d="M5.66406 15C5.66406 14.5685 5.3143 14.2188 4.88281 14.2188C4.45133 14.2188 4.10156 14.5685 4.10156 15C4.10156 15.4315 4.45133 15.7812 4.88281 15.7812C5.3143 15.7812 5.66406 15.4315 5.66406 15Z" fill="white"/>
<path d="M9.0625 11.6016C9.0625 11.1701 8.71273 10.8203 8.28125 10.8203C7.84977 10.8203 7.5 11.1701 7.5 11.6016C7.5 12.033 7.84977 12.3828 8.28125 12.3828C8.71273 12.3828 9.0625 12.033 9.0625 11.6016Z" fill="white"/>
<path d="M9.0625 15C9.0625 14.5685 8.71273 14.2188 8.28125 14.2188C7.84977 14.2188 7.5 14.5685 7.5 15C7.5 15.4315 7.84977 15.7812 8.28125 15.7812C8.71273 15.7812 9.0625 15.4315 9.0625 15Z" fill="white"/>
<path d="M8.28125 7.42188C7.84977 7.42188 7.5 7.77164 7.5 8.20313C7.5 8.63461 7.84977 8.98438 8.28125 8.98438C8.71273 8.98438 9.0625 8.63461 9.0625 8.20313C9.0625 7.77164 8.71273 7.42188 8.28125 7.42188Z" fill="white"/>
<path d="M9.0625 11.6016C9.0625 11.1701 8.71273 10.8203 8.28125 10.8203C7.84977 10.8203 7.5 11.1701 7.5 11.6016C7.5 12.033 7.84977 12.3828 8.28125 12.3828C8.71273 12.3828 9.0625 12.033 9.0625 11.6016Z" fill="white"/>
<path d="M9.0625 15C9.0625 14.5685 8.71273 14.2188 8.28125 14.2188C7.84977 14.2188 7.5 14.5685 7.5 15C7.5 15.4315 7.84977 15.7812 8.28125 15.7812C8.71273 15.7812 9.0625 15.4315 9.0625 15Z" fill="white"/>
<path d="M15.5114 12.3828H14.4034C14.236 12.3828 14.0876 12.3174 14.0358 12.1589L13.688 11.0862C13.6301 10.9089 13.4753 10.8203 13.3204 10.8203C13.1655 10.8203 13.0106 10.9089 12.9528 11.0862L12.6049 12.1589C12.5532 12.3174 12.4048 12.3828 12.2373 12.3828H11.131C10.7565 12.3828 10.6008 12.9019 10.9037 13.121L11.7952 13.7797C11.9306 13.8777 11.9873 14.0514 11.9356 14.2099L11.5878 15.2757C11.4721 15.6303 11.8797 15.9251 12.1826 15.706L13.0932 15.0471C13.1609 14.9982 13.2406 14.9737 13.3204 14.9737C13.4001 14.9737 13.4799 14.9982 13.5476 15.0471L14.4581 15.706C14.7611 15.9251 15.1687 15.6303 15.0529 15.2757L14.7052 14.2099C14.6534 14.0514 14.7101 13.8777 14.8456 13.7797L15.7386 13.121C16.0415 12.9019 15.8858 12.3828 15.5114 12.3828Z" fill="white"/>
</mask>
<g mask="url(#mask0_184_2322)">
<mask id="mask1_184_2322" style="mask-type:luminance" maskUnits="userSpaceOnUse" x="0" y="0" width="20" height="20">
<path d="M0 1.90735e-06H20V20H0V1.90735e-06Z" fill="white"/>
</mask>
<g mask="url(#mask1_184_2322)">
<path d="M19.2187 16.875C19.2187 18.1694 18.1694 19.2188 16.875 19.2188H3.125C1.83059 19.2188 0.78125 18.1694 0.78125 16.875V4.6875C0.78125 3.39309 1.83059 2.34375 3.125 2.34375H16.875C18.1694 2.34375 19.2187 3.39309 19.2187 4.6875V12.9688" stroke="#4A4A4A" stroke-opacity="0.8" stroke-width="1.2" stroke-miterlimit="10" stroke-linecap="round" stroke-linejoin="round"/>
<path d="M4.88281 7.42188C4.45133 7.42188 4.10156 7.77164 4.10156 8.20313C4.10156 8.63461 4.45133 8.98438 4.88281 8.98438C5.3143 8.98438 5.66406 8.63461 5.66406 8.20313C5.66406 7.77164 5.3143 7.42188 4.88281 7.42188Z" fill="#4A4A4A" fill-opacity="0.8"/>
<path d="M8.28125 7.42188C7.84977 7.42188 7.5 7.77164 7.5 8.20313C7.5 8.63461 7.84977 8.98438 8.28125 8.98438C8.71273 8.98438 9.0625 8.63461 9.0625 8.20313C9.0625 7.77164 8.71273 7.42188 8.28125 7.42188Z" fill="#4A4A4A" fill-opacity="0.8"/>
<path d="M11.6797 7.42188C11.2482 7.42188 10.8984 7.77164 10.8984 8.20313C10.8984 8.63461 11.2482 8.98438 11.6797 8.98438C12.1112 8.98438 12.4609 8.63461 12.4609 8.20313C12.4609 7.77164 12.1112 7.42188 11.6797 7.42188Z" fill="#4A4A4A" fill-opacity="0.8"/>
<path d="M15.0781 7.42188C14.6466 7.42188 14.2969 7.77164 14.2969 8.20313C14.2969 8.63461 14.6466 8.98438 15.0781 8.98438C15.5096 8.98438 15.8594 8.63461 15.8594 8.20313C15.8594 7.77164 15.5096 7.42188 15.0781 7.42188Z" fill="#4A4A4A" fill-opacity="0.8"/>
<path d="M5.66406 11.6016C5.66406 11.1701 5.3143 10.8203 4.88281 10.8203C4.45133 10.8203 4.10156 11.1701 4.10156 11.6016C4.10156 12.033 4.45133 12.3828 4.88281 12.3828C5.3143 12.3828 5.66406 12.033 5.66406 11.6016Z" fill="#4A4A4A" fill-opacity="0.8"/>
<path d="M5.66406 15C5.66406 14.5685 5.3143 14.2188 4.88281 14.2188C4.45133 14.2188 4.10156 14.5685 4.10156 15C4.10156 15.4315 4.45133 15.7812 4.88281 15.7812C5.3143 15.7812 5.66406 15.4315 5.66406 15Z" fill="#4A4A4A" fill-opacity="0.8"/>
<path d="M9.0625 11.6016C9.0625 11.1701 8.71273 10.8203 8.28125 10.8203C7.84977 10.8203 7.5 11.1701 7.5 11.6016C7.5 12.033 7.84977 12.3828 8.28125 12.3828C8.71273 12.3828 9.0625 12.033 9.0625 11.6016Z" fill="#4A4A4A" fill-opacity="0.8"/>
<path d="M9.0625 15C9.0625 14.5685 8.71273 14.2188 8.28125 14.2188C7.84977 14.2188 7.5 14.5685 7.5 15C7.5 15.4315 7.84977 15.7812 8.28125 15.7812C8.71273 15.7812 9.0625 15.4315 9.0625 15Z" fill="#4A4A4A" fill-opacity="0.8"/>
<path d="M8.28125 7.42188C7.84977 7.42188 7.5 7.77164 7.5 8.20313C7.5 8.63461 7.84977 8.98438 8.28125 8.98438C8.71273 8.98438 9.0625 8.63461 9.0625 8.20313C9.0625 7.77164 8.71273 7.42188 8.28125 7.42188Z" fill="#4A4A4A" fill-opacity="0.8"/>
<path d="M9.0625 11.6016C9.0625 11.1701 8.71273 10.8203 8.28125 10.8203C7.84977 10.8203 7.5 11.1701 7.5 11.6016C7.5 12.033 7.84977 12.3828 8.28125 12.3828C8.71273 12.3828 9.0625 12.033 9.0625 11.6016Z" fill="#4A4A4A" fill-opacity="0.8"/>
<path d="M9.0625 15C9.0625 14.5685 8.71273 14.2188 8.28125 14.2188C7.84977 14.2188 7.5 14.5685 7.5 15C7.5 15.4315 7.84977 15.7812 8.28125 15.7812C8.71273 15.7812 9.0625 15.4315 9.0625 15Z" fill="#4A4A4A" fill-opacity="0.8"/>
<path d="M4.88281 0.78125V3.90625" stroke="#4A4A4A" stroke-opacity="0.8" stroke-width="1.2" stroke-miterlimit="10" stroke-linecap="round" stroke-linejoin="round"/>
<path d="M15.0781 3.90625V0.78125" stroke="#4A4A4A" stroke-opacity="0.8" stroke-width="1.2" stroke-miterlimit="10" stroke-linecap="round" stroke-linejoin="round"/>
<path d="M9.96094 0.78125V3.90625" stroke="#4A4A4A" stroke-opacity="0.8" stroke-width="1.2" stroke-miterlimit="10" stroke-linecap="round" stroke-linejoin="round"/>
<path d="M15.5114 12.3828H14.4034C14.236 12.3828 14.0876 12.3174 14.0358 12.1589L13.688 11.0862C13.6301 10.9089 13.4753 10.8203 13.3204 10.8203C13.1655 10.8203 13.0106 10.9089 12.9528 11.0862L12.6049 12.1589C12.5532 12.3174 12.4048 12.3828 12.2373 12.3828H11.131C10.7565 12.3828 10.6008 12.9019 10.9037 13.121L11.7952 13.7797C11.9306 13.8777 11.9873 14.0514 11.9356 14.2099L11.5878 15.2757C11.4721 15.6303 11.8797 15.9251 12.1826 15.706L13.0932 15.0471C13.1609 14.9982 13.2406 14.9737 13.3204 14.9737C13.4001 14.9737 13.4799 14.9982 13.5476 15.0471L14.4581 15.706C14.7611 15.9251 15.1687 15.6303 15.0529 15.2757L14.7052 14.2099C14.6534 14.0514 14.7101 13.8777 14.8456 13.7797L15.7386 13.121C16.0415 12.9019 15.8858 12.3828 15.5114 12.3828Z" fill="#4A4A4A" fill-opacity="0.8"/>
</g>
</g>
</g>
<defs>
<clipPath id="clip0_184_2322">
<rect width="20" height="20" fill="white"/>
</clipPath>
</defs>
</svg>
