<svg width="13" height="12" viewBox="0 0 13 12" fill="none" xmlns="http://www.w3.org/2000/svg">
<path d="M0 4V3.25C0.000727739 2.65349 0.238014 2.08161 0.659813 1.65981C1.08161 1.23801 1.65349 1.00073 2.25 1H3V1.75C3 2.01522 3.10536 2.26957 3.29289 2.45711C3.48043 2.64464 3.73478 2.75 4 2.75C4.26522 2.75 4.51957 2.64464 4.70711 2.45711C4.89464 2.26957 5 2.01522 5 1.75V1H8V1.75C8 2.01522 8.10536 2.26957 8.29289 2.45711C8.48043 2.64464 8.73478 2.75 9 2.75C9.26522 2.75 9.51957 2.64464 9.70711 2.45711C9.89464 2.26957 10 2.01522 10 1.75V1H10.75C11.3465 1.00073 11.9184 1.23801 12.3402 1.65981C12.762 2.08161 12.9993 2.65349 13 3.25V4H0ZM3.5 1.75C3.5 1.88261 3.55268 2.00979 3.64645 2.10355C3.74021 2.19732 3.86739 2.25 4 2.25C4.13261 2.25 4.25979 2.19732 4.35355 2.10355C4.44732 2.00979 4.5 1.88261 4.5 1.75V0.5C4.5 0.367392 4.44732 0.240215 4.35355 0.146447C4.25979 0.0526784 4.13261 0 4 0C3.86739 0 3.74021 0.0526784 3.64645 0.146447C3.55268 0.240215 3.5 0.367392 3.5 0.5V1.75ZM8.5 0.5V1.75C8.5 1.88261 8.55268 2.00979 8.64645 2.10355C8.74021 2.19732 8.86739 2.25 9 2.25C9.13261 2.25 9.25979 2.19732 9.35355 2.10355C9.44732 2.00979 9.5 1.88261 9.5 1.75V0.5C9.5 0.367392 9.44732 0.240215 9.35355 0.146447C9.25979 0.0526784 9.13261 0 9 0C8.86739 0 8.74021 0.0526784 8.64645 0.146447C8.55268 0.240215 8.5 0.367392 8.5 0.5ZM13 4.5V9.75C12.9993 10.3465 12.762 10.9184 12.3402 11.3402C11.9184 11.762 11.3465 11.9993 10.75 12H2.25C1.65349 11.9993 1.08161 11.762 0.659813 11.3402C0.238014 10.9184 0.000727739 10.3465 0 9.75V4.5H13ZM8.32675 7.32725H7.2945L6.975 6.3455C6.94212 6.24547 6.8785 6.15837 6.7932 6.09662C6.70791 6.03487 6.6053 6.00163 6.5 6.00163C6.3947 6.00163 6.29209 6.03487 6.2068 6.09662C6.1215 6.15837 6.05788 6.24547 6.025 6.3455L5.706 7.32725H4.67325C4.56765 7.32723 4.46476 7.36064 4.37932 7.4227C4.29388 7.48475 4.23029 7.57226 4.19764 7.67269C4.165 7.77311 4.16499 7.8813 4.19762 7.98173C4.23024 8.08216 4.29382 8.16968 4.37925 8.23175L5.2145 8.8385L4.8955 9.82025C4.86286 9.92068 4.86285 10.0289 4.89548 10.1293C4.92811 10.2297 4.9917 10.3173 5.07714 10.3793C5.16258 10.4414 5.26548 10.4748 5.37109 10.4748C5.47669 10.4748 5.57958 10.4413 5.665 10.3792L6.5 9.7725L7.335 10.3792C7.42042 10.4413 7.52331 10.4748 7.62891 10.4748C7.73452 10.4748 7.83742 10.4414 7.92286 10.3793C8.0083 10.3173 8.07189 10.2297 8.10452 10.1293C8.13715 10.0289 8.13715 9.92068 8.1045 9.82025L7.7855 8.8385L8.62075 8.23175C8.70618 8.16968 8.76976 8.08216 8.80238 7.98173C8.83501 7.8813 8.835 7.77311 8.80236 7.67269C8.76971 7.57226 8.70612 7.48475 8.62068 7.4227C8.53524 7.36064 8.43235 7.32723 8.32675 7.32725Z" fill="#3EBEBA"/>
</svg>
