<svg width="20" height="20" viewBox="0 0 20 20" fill="none" xmlns="http://www.w3.org/2000/svg">
<path d="M17.1725 6.77098C16.9526 3.17504 14.0746 0.286678 10.4808 0.0563269C6.2395 -0.22172 2.81372 3.15223 2.81372 7.22539C2.81372 9.67594 4.04626 11.9335 6.1088 13.2615C7.0197 13.8508 7.60485 14.797 7.70446 15.8262H7.55091C7.10481 15.8262 6.74169 16.1893 6.74169 16.6375C6.74169 16.8761 6.84751 17.0898 7.0156 17.2393C6.84751 17.3866 6.74169 17.6003 6.74169 17.841C6.74169 18.2871 7.10481 18.6502 7.55091 18.6502H7.95552C8.2979 19.4864 9.10712 19.9595 9.91224 19.9595C10.7007 19.9595 11.4954 19.5238 11.8669 18.6502H12.2756C12.7218 18.6502 13.0849 18.2871 13.0849 17.841C13.0849 17.6231 13.004 17.4094 12.811 17.2372C12.977 17.0899 13.0849 16.8761 13.0849 16.6375C13.0849 16.1914 12.7342 15.8386 12.2964 15.8282C12.3918 14.7907 12.9583 13.857 13.8422 13.2968C16.0583 11.892 17.3344 9.39168 17.1725 6.77098ZM13.6202 12.9461C12.6159 13.581 11.9768 14.6476 11.8793 15.8262H8.11946C8.02192 14.6559 7.36415 13.5769 6.3329 12.9129C4.38864 11.6596 3.22872 9.5348 3.22872 7.22539C3.22872 3.30781 6.52587 0.211952 10.4538 0.469257C13.8402 0.687147 16.5501 3.40742 16.7576 6.79586C16.9111 9.26719 15.7076 11.6223 13.6202 12.9461Z" fill="#3EBEBA"/>
<path d="M12.7694 7.14656C13.9626 6.0634 14.724 4.94918 14.3132 4.32043C13.9314 3.74148 12.7777 3.91168 11.4518 4.45945C11.1841 3.05055 10.6924 1.99023 10.0014 1.99023C9.30835 1.99023 8.81659 3.04848 8.54686 4.45527C8.25635 4.33492 7.97416 4.23324 7.70858 4.15234C6.6628 3.84109 5.96354 3.89922 5.68756 4.32043C5.41159 4.73957 5.63776 5.40355 6.33913 6.2377C6.59018 6.53648 6.89108 6.84149 7.23135 7.15066C6.03616 8.23176 5.27463 9.34809 5.68756 9.97891C6.16272 10.7031 7.75217 10.1677 8.5469 9.83781C8.81456 11.2467 9.30635 12.307 10.0014 12.307C10.6924 12.307 11.1842 11.2488 11.4519 9.84195C11.7424 9.96231 12.0266 10.0661 12.2922 10.1449C12.9355 10.3358 13.946 10.535 14.3112 9.97891C14.5871 9.5577 14.363 8.89371 13.6617 8.05953C13.4106 7.76074 13.1098 7.45363 12.7694 7.14656ZM6.03405 9.75063C5.82448 9.43106 6.33491 8.51188 7.54463 7.42457C7.79155 7.63414 8.05713 7.84164 8.33522 8.04707C8.3601 8.51809 8.40784 8.98289 8.47631 9.4207C7.15245 9.97891 6.22909 10.0495 6.03405 9.75063ZM8.31444 7.51172C8.15674 7.39141 8.00526 7.26895 7.86002 7.14859C8.00319 7.02828 8.15467 6.90793 8.31444 6.78344C8.3103 6.90586 8.30823 7.02828 8.30823 7.14859C8.30823 7.26898 8.3103 7.38934 8.31444 7.51172ZM8.33522 6.25016C8.06131 6.45141 7.79573 6.66102 7.54463 6.87473C7.20639 6.56969 6.90553 6.26469 6.65655 5.97211C6.01124 5.20438 5.91163 4.73336 6.03405 4.5466C6.25401 4.21047 7.20225 4.43457 7.5903 4.55074C7.86834 4.63375 8.16713 4.74582 8.47631 4.87648C8.40784 5.31434 8.36217 5.77914 8.33522 6.25016ZM11.2277 5.93891C11.1302 5.87043 11.0306 5.80191 10.9289 5.73555C10.7567 5.62352 10.5865 5.5177 10.4143 5.41395C10.6633 5.27906 10.9019 5.15664 11.1323 5.04875C11.1717 5.3268 11.2049 5.62352 11.2277 5.93891ZM10.0014 2.40523C10.3562 2.40523 10.8044 3.21445 11.0638 4.62754C10.7131 4.7873 10.3562 4.97195 10.0014 5.17117C9.64034 4.96574 9.28346 4.78316 8.93694 4.62547C9.19631 3.21445 9.64452 2.40523 10.0014 2.40523ZM8.86639 5.05082C9.10088 5.16078 9.34155 5.28113 9.58432 5.41395C9.41209 5.51977 9.23987 5.62559 9.07178 5.73555C8.9701 5.80195 8.87053 5.87043 8.77092 5.93891C8.79377 5.62352 8.82698 5.3268 8.86639 5.05082ZM8.77092 8.35625C8.87053 8.42473 8.97014 8.49527 9.07389 8.56168C9.24405 8.67375 9.4142 8.77957 9.58436 8.88332C9.33538 9.01816 9.09674 9.14063 8.86643 9.24645C8.82698 8.96836 8.79377 8.67164 8.77092 8.35625ZM10.0014 11.892C9.64452 11.892 9.19424 11.0807 8.93487 9.66973C9.28553 9.50789 9.64452 9.32527 9.99932 9.12606C10.3604 9.32941 10.7173 9.51203 11.0638 9.6718C10.8044 11.0828 10.3562 11.892 10.0014 11.892ZM11.1323 9.24645C10.8978 9.13649 10.6592 9.01406 10.4164 8.88332C10.5887 8.77957 10.7588 8.67168 10.9248 8.56168C11.0265 8.49527 11.1281 8.42684 11.2278 8.35832C11.2049 8.67164 11.1717 8.96836 11.1323 9.24645ZM11.2589 7.82922C11.0804 7.95789 10.8957 8.08652 10.6986 8.2152C10.46 8.37289 10.2276 8.51399 9.99936 8.6468C9.76694 8.51191 9.53456 8.36875 9.30217 8.2152C9.1092 8.08859 8.92245 7.95789 8.73987 7.82715C8.72948 7.60723 8.72327 7.38313 8.72327 7.14863C8.72327 6.91418 8.72948 6.68801 8.73987 6.46805C8.91831 6.33941 9.10299 6.21074 9.29803 6.08211C9.53667 5.92648 9.77112 5.78125 9.99936 5.64844C10.2317 5.78543 10.4662 5.92859 10.7007 6.08211C10.8916 6.20867 11.0783 6.33734 11.2589 6.46805C11.2672 6.68797 11.2755 6.91418 11.2755 7.14863C11.2755 7.3852 11.2692 7.60926 11.2589 7.82922ZM13.4396 4.3723C13.7094 4.3723 13.8899 4.4325 13.9646 4.5466C14.1742 4.86613 13.6637 5.78539 12.4561 6.87266C12.2092 6.66102 11.9415 6.45352 11.6634 6.24809C11.6364 5.77707 11.5908 5.31434 11.5223 4.87441C12.3399 4.53 13.0039 4.3723 13.4396 4.3723ZM11.6842 6.78344C11.8419 6.90586 11.9934 7.02621 12.1386 7.14859C11.9955 7.26895 11.844 7.38934 11.6842 7.51172C11.6883 7.39141 11.6904 7.27106 11.6904 7.14859C11.6905 7.02828 11.6884 6.90586 11.6842 6.78344ZM13.9646 9.75063C13.8422 9.93738 13.3712 10.0329 12.4105 9.74649C12.1324 9.66352 11.8337 9.55145 11.5245 9.42074C11.5909 8.98086 11.6386 8.51813 11.6635 8.04711C11.9374 7.84375 12.203 7.63418 12.4541 7.42254C12.7944 7.72754 13.0973 8.03258 13.3442 8.32516C13.9874 9.09289 14.0871 9.56598 13.9646 9.75063Z" fill="#3EBEBA"/>
<path d="M11.0244 7.14857C11.0244 7.71299 10.5638 8.17361 9.99941 8.17361C9.43499 8.17361 8.97644 7.71299 8.97644 7.14857C8.97644 6.5842 9.43503 6.12354 9.99941 6.12354C10.5638 6.12354 11.0244 6.5842 11.0244 7.14857Z" fill="#3EBEBA"/>
</svg>
