<svg width="24" height="18" viewBox="0 0 24 18" fill="none" xmlns="http://www.w3.org/2000/svg">
<path d="M15.5512 10.0625L13.5412 12.2138C12.7261 13.0863 11.2919 13.1051 10.4591 12.2138L8.44899 10.0625L1.22949 17.7882C1.49823 17.9207 1.79452 17.9998 2.10952 17.9998H21.8908C22.2058 17.9998 22.502 17.9208 22.7706 17.7882L15.5512 10.0625Z" fill="#3EBEBA"/>
<path d="M21.8907 0H2.10943C1.79443 0 1.49813 0.079099 1.22949 0.211647L8.94404 8.46769C8.94456 8.46824 8.94516 8.46834 8.94568 8.46889C8.9462 8.46944 8.94629 8.47019 8.94629 8.47019L11.4547 11.1547C11.7211 11.4388 12.2791 11.4388 12.5455 11.1547L15.0534 8.47064C15.0534 8.47064 15.054 8.46944 15.0545 8.46889C15.0545 8.46889 15.0556 8.46824 15.0562 8.46769L22.7705 0.211597C22.5019 0.0789991 22.2057 0 21.8907 0Z" fill="#3EBEBA"/>
<path d="M0.224344 1.2605C0.0853125 1.56039 0 1.89329 0 2.24989V15.7497C0 16.1063 0.0852187 16.4392 0.224297 16.7391L7.45631 9.00005L0.224344 1.2605Z" fill="#3EBEBA"/>
<path d="M23.7759 1.2605L16.5439 9.00015L23.7759 16.7393C23.9149 16.4394 24.0002 16.1065 24.0002 15.7498V2.24998C24.0002 1.89329 23.9149 1.56039 23.7759 1.2605Z" fill="#3EBEBA"/>
</svg>
