<svg width="20" height="20" viewBox="0 0 20 20" fill="none" xmlns="http://www.w3.org/2000/svg">
<g clip-path="url(#clip0_502_6229)">
<path d="M10.3516 0V9.12281L18.9024 5.94386C17.574 2.37057 14.1638 5.86596e-05 10.3516 0Z" fill="#3EBEBA"/>
<path d="M6.43848 19.6248C8.22816 20.167 10.1448 20.119 11.9051 19.4879C9.82575 17.7681 9.38396 14.7542 10.8823 12.5099C12.3806 10.2656 15.3335 9.51809 17.7192 10.7791C17.6843 10.0049 17.5451 9.23891 17.3051 8.50195L9.23497 11.4984L6.43848 19.6248Z" fill="#3EBEBA"/>
<path d="M13.5091 14.0348C13.7029 14.0348 13.86 13.8777 13.86 13.6839C13.86 13.4901 13.7029 13.333 13.5091 13.333C13.3153 13.333 13.1582 13.4901 13.1582 13.6839C13.1582 13.8777 13.3153 14.0348 13.5091 14.0348Z" fill="#3EBEBA"/>
<path d="M5.78973 19.396L8.49148 11.4802L0.337095 9.56445C-0.46028 13.7287 1.83498 17.8673 5.78973 19.396Z" fill="#3EBEBA"/>
<path d="M0.501953 8.88062L8.59669 10.7859V2.45605C4.78373 2.59668 1.50467 5.19917 0.501953 8.88062Z" fill="#3EBEBA"/>
<path d="M15.2636 10.877C12.7444 10.877 10.7021 12.9192 10.7021 15.4384C10.7021 17.9575 12.7444 19.9998 15.2636 19.9998C17.7827 19.9998 19.825 17.9575 19.825 15.4384C19.825 14.2286 19.3444 13.0684 18.489 12.213C17.6335 11.3575 16.4733 10.877 15.2636 10.877ZM12.4565 13.684C12.4565 13.1026 12.9278 12.6313 13.5092 12.6313C14.0905 12.6313 14.5618 13.1026 14.5618 13.684C14.5618 14.2653 14.0905 14.7366 13.5092 14.7366C12.9278 14.7366 12.4565 14.2653 12.4565 13.684ZM13.4074 17.7927C13.3184 17.8817 13.1887 17.9165 13.0671 17.8839C12.9455 17.8514 12.8506 17.7564 12.818 17.6348C12.7854 17.5132 12.8202 17.3835 12.9092 17.2945L17.1197 13.084C17.2087 12.995 17.3384 12.9602 17.46 12.9928C17.5816 13.0254 17.6765 13.1203 17.7091 13.2419C17.7417 13.3635 17.7069 13.4932 17.6179 13.5822L13.4074 17.7927ZM17.0179 18.2454C16.4366 18.2454 15.9653 17.7741 15.9653 17.1927C15.9653 16.6114 16.4366 16.1401 17.0179 16.1401C17.5993 16.1401 18.0706 16.6114 18.0706 17.1927C18.0706 17.7741 17.5993 18.2454 17.0179 18.2454Z" fill="#3EBEBA"/>
<path d="M17.0179 17.5436C17.2117 17.5436 17.3687 17.3865 17.3687 17.1927C17.3687 16.9989 17.2117 16.8418 17.0179 16.8418C16.8241 16.8418 16.667 16.9989 16.667 17.1927C16.667 17.3865 16.8241 17.5436 17.0179 17.5436Z" fill="#3EBEBA"/>
</g>
<defs>
<clipPath id="clip0_502_6229">
<rect width="20" height="20" fill="white"/>
</clipPath>
</defs>
</svg>
