<svg width="24" height="28" viewBox="0 0 24 28" fill="none" xmlns="http://www.w3.org/2000/svg">
<path d="M23.2548 19.7318C21.4404 18.2408 20.4 16.0615 20.4 13.7527V10.5C20.4 6.3945 17.2632 2.996 13.2 2.42667V1.16667C13.2 0.5215 12.6624 0 12 0C11.3376 0 10.8 0.5215 10.8 1.16667V2.42667C6.7356 2.996 3.6 6.3945 3.6 10.5V13.7527C3.6 16.0615 2.5596 18.2408 0.7344 19.7412C0.2676 20.1297 0 20.6943 0 21.2917C0 22.4175 0.942 23.3333 2.1 23.3333H21.9C23.058 23.3333 24 22.4175 24 21.2917C24 20.6943 23.7324 20.1297 23.2548 19.7318Z" fill="#4A4A4A" fill-opacity="0.8"/>
<path d="M12.0006 28C14.1738 28 15.9918 26.4938 16.4094 24.5H7.5918C8.0094 26.4938 9.8274 28 12.0006 28Z" fill="#4A4A4A" fill-opacity="0.8"/>
</svg>
