<svg width="18" height="24" viewBox="0 0 18 24" fill="none" xmlns="http://www.w3.org/2000/svg">
<path d="M17.8535 5.1465L12.8535 0.146484C12.7598 0.0527344 12.6328 0 12.5 0H1.99997C0.896953 0 0 0.896953 0 2.00002V22C0 23.103 0.896953 24 2.00002 24H16C17.103 24 18 23.103 18 22V5.49998C18 5.36719 17.9473 5.24025 17.8535 5.1465ZM13 1.70705L16.293 5.00002H14C13.4487 5.00002 13 4.55128 13 4.00003V1.70705ZM17 22C17 22.5512 16.5513 23 16 23H2.00002C1.44877 23 1.00003 22.5512 1.00003 22V2.00002C1.00003 1.44877 1.44877 1.00003 2.00002 1.00003H12V4.00003C12 5.10305 12.897 6 14 6H17V22Z" fill="#4A4A4A"/>
<path d="M11.5493 14.6782C11.0864 14.314 10.6465 13.9395 10.3535 13.6465C9.97266 13.2657 9.63328 12.8965 9.33839 12.545C9.79837 11.1236 10 10.3907 10 10C10 8.34036 9.40041 8 8.50003 8C7.81594 8 7.00003 8.35545 7.00003 10.0479C7.00003 10.794 7.40873 11.6997 8.21878 12.7525C8.02055 13.3574 7.78762 14.0552 7.52592 14.8418C7.39992 15.2193 7.26323 15.5689 7.11867 15.8921C7.00102 15.9444 6.88673 15.9976 6.77639 16.0528C6.37894 16.2515 6.0015 16.4302 5.65139 16.5962C4.05469 17.3521 3 17.8521 3 18.8394C3 19.5562 3.77883 20 4.5 20C5.42967 20 6.83348 18.7583 7.85888 16.6665C8.92331 16.2466 10.2466 15.9355 11.291 15.7407C12.1279 16.3842 13.0522 17 13.5 17C14.7397 17 15 16.2832 15 15.6821C15 14.5 13.6494 14.5 13 14.5C12.7983 14.5 12.2573 14.5596 11.5493 14.6782ZM4.5 19C4.21434 19 4.02098 18.8653 3.99998 18.8394C3.99998 18.4849 5.05711 17.9839 6.07959 17.4995C6.14452 17.4688 6.21047 17.438 6.27736 17.4063C5.52638 18.4952 4.78369 19 4.5 19ZM8.00002 10.0479C8.00002 9.00003 8.32523 9.00003 8.50003 9.00003C8.85356 9.00003 9.00005 9.00003 9.00005 10C9.00005 10.211 8.85942 10.7383 8.60208 11.5616C8.20945 10.9571 8.00002 10.439 8.00002 10.0479ZM8.38331 15.4219C8.41458 15.335 8.44486 15.2471 8.47416 15.1582C8.65969 14.6016 8.8267 14.1016 8.97563 13.6514C9.18314 13.8799 9.40678 14.1138 9.64655 14.3535C9.7403 14.4473 9.9727 14.6582 10.2823 14.9224C9.666 15.0567 9.01027 15.2232 8.38331 15.4219ZM14 15.6822C14 15.9068 14 16 13.5361 16.003C13.3999 15.9737 13.085 15.7881 12.6963 15.5235C12.8374 15.5079 12.9414 15.5 13 15.5C13.7388 15.5 13.9483 15.5723 14 15.6822Z" fill="#4A4A4A"/>
</svg>
