<svg width="24" height="24" viewBox="0 0 24 24" fill="none" xmlns="http://www.w3.org/2000/svg">
<path d="M11.475 1.5874C14.45 2.6374 16.9875 5.5249 16.9875 8.8499C16.9875 13.1374 14.1 16.8999 8.76255 16.8999C5.43755 16.8999 2.72505 14.3624 1.67505 11.3874C2.37505 16.1999 6.75005 19.5249 11.5625 18.8249C16.375 18.1249 19.7 13.7499 19 8.9374C18.3875 5.1749 15.325 2.1124 11.475 1.5874Z" fill="#3EBEBA" fill-opacity="0.7"/>
<path d="M10.25 13.75C9.725 13.75 9.375 13.4 9.375 12.875C9.4625 11.7375 10.075 10.775 10.95 10.075C11.475 9.55 12 9.025 12 8.5C12 7.5375 11.2125 6.75 10.25 6.75C9.2875 6.75 8.5 7.5375 8.5 8.5C8.5 9.025 8.15 9.375 7.625 9.375C7.1 9.375 6.75 9.025 6.75 8.5C6.75 6.575 8.325 5 10.25 5C12.175 5 13.75 6.575 13.75 8.5C13.6625 9.6375 13.05 10.6 12.175 11.3C11.65 11.825 11.125 12.35 11.125 12.875C11.125 13.4 10.775 13.75 10.25 13.75Z" fill="#4A4A4A" fill-opacity="0.5"/>
<path d="M10.25 16.375C10.7332 16.375 11.125 15.9832 11.125 15.5C11.125 15.0168 10.7332 14.625 10.25 14.625C9.76675 14.625 9.375 15.0168 9.375 15.5C9.375 15.9832 9.76675 16.375 10.25 16.375Z" fill="#4A4A4A" fill-opacity="0.5"/>
<path d="M23.1125 21.8875L17.6 16.375C21.0125 12.2625 20.4875 6.22499 16.375 2.81248C12.2625 -0.600015 6.22499 0.012485 2.81248 4.03748C-0.600015 8.06248 0.012485 14.275 4.03748 17.6C7.62498 20.575 12.7875 20.575 16.375 17.6L21.8875 23.1125C22.2375 23.4625 22.7625 23.4625 23.1125 23.1125C23.4625 22.7625 23.4625 22.2375 23.1125 21.8875ZM2.37498 10.25C2.37498 5.87499 5.87499 2.37498 10.25 2.37498C14.625 2.37498 18.125 5.87499 18.125 10.25C18.125 14.625 14.625 18.125 10.25 18.125C5.87499 18.125 2.37498 14.625 2.37498 10.25Z" fill="#4A4A4A" fill-opacity="0.5"/>
</svg>
