<svg width="28" height="28" viewBox="0 0 28 28" fill="none" xmlns="http://www.w3.org/2000/svg">
<path d="M24.3599 12.88C23.9399 12.88 23.6599 13.16 23.6599 13.58V19.04C23.6599 21.7 21.4899 23.8 18.8999 23.8H8.53988C5.87988 23.8 3.77988 21.7 3.77988 19.04V8.68002C3.77988 6.02002 5.94988 3.92002 8.53988 3.92002H13.7899C14.2099 3.92002 14.4899 3.64002 14.4899 3.22002C14.4899 2.80002 14.2099 2.52002 13.7899 2.52002H8.53988C5.10988 2.52002 2.37988 5.32002 2.37988 8.68002V19.04C2.37988 22.47 5.17988 25.2 8.53988 25.2H18.8999C22.3299 25.2 25.0599 22.47 25.0599 19.04V13.58C25.0599 13.23 24.7799 12.88 24.3599 12.88Z" fill="#3EBEBA"/>
<path d="M10.9901 14.8401C10.8501 15.1901 11.0601 15.6101 11.4101 15.7501H11.6201C11.9001 15.7501 12.1801 15.5401 12.3201 15.2601C14.0701 10.7101 18.1301 7.35009 22.9601 6.58009L21.2801 9.52009C21.0701 9.87009 21.2101 10.2901 21.5601 10.5001C21.6301 10.5701 21.7701 10.5701 21.9101 10.5701C22.1901 10.5701 22.4001 10.4301 22.5401 10.2201L24.9901 5.81009C25.2001 5.46009 25.0601 5.04009 24.7101 4.83009L20.1601 2.31009C19.8101 2.10009 19.3901 2.24009 19.1801 2.59009C18.9701 2.94009 19.1101 3.36009 19.4601 3.57009L22.4701 5.25009C17.2201 6.16009 12.8801 9.80009 10.9901 14.8401Z" fill="#3EBEBA"/>
</svg>
