<svg width="40" height="40" viewBox="0 0 40 40" fill="none" xmlns="http://www.w3.org/2000/svg">
<mask id="mask0_1079_647" style="mask-type:luminance" maskUnits="userSpaceOnUse" x="0" y="0" width="40" height="40">
<path d="M19.5582 8.4916e-08C19.0852 7.37629e-08 18.6168 0.0931715 18.1798 0.274214C17.7428 0.455257 17.3457 0.720621 17.0112 1.05514C16.6768 1.38965 16.4115 1.78676 16.2306 2.22381C16.0496 2.66086 15.9566 3.12928 15.9567 3.60231V15.0725C15.9567 16.0278 16.3362 16.9441 17.0118 17.6197C17.6873 18.2953 18.6036 18.6748 19.559 18.6748C20.5144 18.6748 21.4306 18.2953 22.1062 17.6197C22.7818 16.9441 23.1613 16.0278 23.1613 15.0725V3.60231C23.1613 3.12918 23.0681 2.66068 22.887 2.22357C22.7059 1.78647 22.4405 1.38932 22.1059 1.0548C21.7713 0.720286 21.3741 0.454963 20.937 0.273976C20.4998 0.0929884 20.0313 -0.000102635 19.5582 8.4916e-08ZM15.1527 25.6323C15.1533 26.5035 15.4122 27.3549 15.8967 28.079C16.3811 28.8031 17.0694 29.3672 17.8744 29.7002C18.6795 30.0332 19.5652 30.12 20.4196 29.9496C21.274 29.7793 22.0587 29.3595 22.6745 28.7432C23.2903 28.127 23.7096 27.342 23.8793 26.4875C24.049 25.633 23.9616 24.7473 23.6281 23.9425C23.2945 23.1377 22.7299 22.4498 22.0054 21.9659C21.281 21.4819 20.4294 21.2236 19.5582 21.2236C18.9796 21.2236 18.4066 21.3376 17.8721 21.559C17.3375 21.7805 16.8518 22.1051 16.4427 22.5142C16.0336 22.9234 15.7091 23.4092 15.4878 23.9438C15.2664 24.4784 15.1526 25.0513 15.1527 25.6299V25.6323ZM26.5172 30.8785L26.4781 30.9043C26.4195 30.9411 26.3593 30.9826 26.2998 31.0131C26.2811 31.0256 26.2607 31.0389 26.2396 31.049C26.1739 31.0897 26.1074 31.1272 26.041 31.1671C25.9745 31.207 25.9127 31.2399 25.8501 31.2751C25.7876 31.3103 25.7453 31.3337 25.6937 31.3619C25.6421 31.39 25.5912 31.4174 25.5373 31.4448C25.4833 31.4722 25.4262 31.5019 25.3715 31.5292C25.3386 31.5465 25.3066 31.5621 25.2737 31.5777C25.0735 31.6778 24.8709 31.7701 24.666 31.8585C24.6308 31.8741 24.5933 31.8913 24.5565 31.9054C24.4963 31.9305 24.4353 31.9563 24.3743 31.9836C24.3133 32.011 24.2273 32.0415 24.1538 32.0704L24.0216 32.1197L23.9989 32.1275C23.9262 32.1549 23.8527 32.1807 23.7799 32.2057L23.6517 32.2503C23.5735 32.2761 23.4952 32.302 23.4123 32.3285C23.3294 32.3551 23.2442 32.3794 23.1589 32.4067L23.0588 32.4349L22.9196 32.4732L22.7812 32.5108C22.6826 32.535 22.5841 32.5593 22.4856 32.5812C22.4355 32.5945 22.3854 32.6046 22.3362 32.6156L22.2329 32.6367C22.1618 32.6515 22.0914 32.6664 22.0194 32.6797C22.0127 32.6816 22.006 32.6832 21.9991 32.6844L21.7981 32.7204C21.7199 32.7352 21.6456 32.7477 21.5674 32.7587L21.429 32.7798C21.2843 32.8009 21.1388 32.8189 20.9918 32.8346L20.9308 32.8416C20.7055 32.8656 20.4784 32.8836 20.2496 32.8955L20.0321 32.9049C19.9539 32.9049 19.882 32.9104 19.8077 32.9112C19.7334 32.912 19.6411 32.9112 19.5574 32.9112C19.4737 32.9112 19.3846 32.9112 19.2993 32.9112C19.2266 32.9112 19.1562 32.9112 19.0835 32.9057L18.8746 32.8963C18.7691 32.8909 18.6658 32.8838 18.5618 32.876C18.5201 32.876 18.4784 32.8726 18.4367 32.8658L18.317 32.8541C18.2602 32.8494 18.2036 32.8437 18.1473 32.8369C18.1012 32.833 18.055 32.8275 18.0089 32.8212C17.9776 32.8212 17.9471 32.815 17.9166 32.8095C17.7602 32.7908 17.61 32.7681 17.4575 32.7431L17.2659 32.7102L17.1806 32.6946C17.086 32.6773 16.9914 32.6578 16.896 32.6383C16.8005 32.6187 16.72 32.6007 16.6324 32.5804L16.4025 32.5256C16.3039 32.5022 16.2069 32.4756 16.1099 32.4474C16.0435 32.4294 15.9778 32.4114 15.9121 32.3911C15.8612 32.3762 15.8104 32.3614 15.7611 32.3458C15.7119 32.3301 15.6775 32.3191 15.636 32.3066C15.5406 32.2769 15.4467 32.2449 15.3529 32.2128L15.3177 32.201C15.2238 32.1682 15.1308 32.1354 15.0385 32.1002C14.8993 32.0485 14.7616 31.9946 14.6248 31.9359H14.6208C14.5356 31.9007 14.4519 31.8655 14.3682 31.8288C14.3064 31.8014 14.2447 31.7748 14.1821 31.7451C14.1195 31.7154 14.0812 31.6997 14.0319 31.6763L13.9639 31.6434L13.8239 31.5754C13.7551 31.5418 13.6862 31.5066 13.6174 31.4706C13.5486 31.4346 13.4782 31.3979 13.4086 31.3603C13.3609 31.3361 13.3132 31.3095 13.2678 31.2821C13.2029 31.2469 13.1396 31.2109 13.077 31.1742C13.0144 31.1374 12.9433 31.096 12.8776 31.0561C12.8572 31.0451 12.8377 31.0326 12.8173 31.0201C12.7571 30.9857 12.6992 30.9481 12.6406 30.9114L12.6257 30.902L8.76533 36.2398L8.7794 36.2492C9.55409 36.7628 10.3643 37.2206 11.2039 37.6194C11.3087 37.6694 11.4151 37.7187 11.5214 37.7664C11.5942 37.7993 11.6677 37.8321 11.7396 37.8626C11.7975 37.8892 11.8562 37.9135 11.914 37.9408C12.1878 38.0581 12.4657 38.1689 12.7477 38.2732C12.7907 38.2904 12.833 38.3061 12.8768 38.3209C12.9824 38.36 13.0895 38.3991 13.1967 38.4351C13.4052 38.5071 13.6164 38.5756 13.8302 38.6408C13.9436 38.676 14.057 38.7096 14.1711 38.7409C14.2853 38.7722 14.3987 38.8058 14.5137 38.8363C14.6287 38.8668 14.7444 38.8981 14.8586 38.9255C15.076 38.9776 15.2942 39.0274 15.5132 39.0749C15.5781 39.0889 15.6423 39.1022 15.7064 39.114L15.9222 39.1578C16.0364 39.1789 16.1498 39.1992 16.2648 39.2188C16.3532 39.2336 16.4423 39.2485 16.5323 39.2618L16.5737 39.2688C16.6277 39.2782 16.6817 39.2852 16.7372 39.2923C16.8537 39.3087 16.9718 39.3251 17.086 39.34C17.1415 39.347 17.1971 39.3541 17.2534 39.3595L17.3879 39.376L17.5341 39.3908C17.6241 39.401 17.7156 39.4088 17.8055 39.4166C17.8587 39.4221 17.9111 39.4276 17.9658 39.4307C18.0206 39.4338 18.0722 39.4401 18.1223 39.4432C18.1379 39.4445 18.1536 39.4445 18.1692 39.4432C18.2263 39.4479 18.2842 39.4526 18.3428 39.455C18.3577 39.455 18.3733 39.455 18.389 39.455C18.4296 39.455 18.4672 39.4597 18.5125 39.4612C18.6048 39.4667 18.6979 39.4714 18.7902 39.4745C18.8543 39.4745 18.9192 39.4792 18.9826 39.48C19.0185 39.48 19.0561 39.48 19.0936 39.48C19.1312 39.48 19.1671 39.48 19.2047 39.48C19.3181 39.48 19.4307 39.48 19.5449 39.48C19.6591 39.48 19.7717 39.48 19.8851 39.48C19.9227 39.48 19.9597 39.48 19.9962 39.48C20.0337 39.48 20.0744 39.48 20.1072 39.48C20.1721 39.48 20.2363 39.48 20.3004 39.4745C20.3927 39.4745 20.4858 39.4675 20.578 39.4612C20.6195 39.4612 20.6563 39.4612 20.7008 39.455C20.7165 39.455 20.7329 39.455 20.7478 39.455C20.8056 39.455 20.8643 39.4487 20.9214 39.4432C20.9367 39.4445 20.9522 39.4445 20.9675 39.4432C21.0207 39.4432 21.0747 39.4354 21.1278 39.4307C21.181 39.426 21.235 39.4229 21.2882 39.4166C21.3781 39.4096 21.4688 39.401 21.5588 39.3908L21.705 39.376L21.8396 39.3595C21.8959 39.3538 21.9517 39.3473 22.0069 39.34C22.1235 39.3251 22.2415 39.3087 22.3565 39.2923C22.4105 39.2852 22.4644 39.2774 22.5192 39.2688L22.5606 39.2618C22.6498 39.2485 22.7397 39.2336 22.8289 39.2188C22.9431 39.2 23.0565 39.1797 23.1715 39.1578L23.3873 39.114C23.4514 39.1015 23.5164 39.0882 23.5797 39.0749C23.7992 39.03 24.0174 38.9802 24.2343 38.9255C24.3501 38.8973 24.465 38.8684 24.58 38.8363C24.695 38.8043 24.8099 38.7737 24.9226 38.7409C25.0352 38.708 25.1502 38.676 25.2636 38.6408C25.4758 38.5761 25.6869 38.5076 25.897 38.4351C26.0042 38.3983 26.1106 38.3569 26.2169 38.3209C26.2599 38.3061 26.303 38.2904 26.346 38.2732C26.627 38.1689 26.9049 38.0581 27.1797 37.9408C27.2368 37.915 27.2962 37.8908 27.3533 37.8626C27.4253 37.8321 27.4995 37.7993 27.5715 37.7664C27.6779 37.7187 27.7842 37.6694 27.889 37.6194C28.73 37.2208 29.5415 36.7629 30.3174 36.2492C30.3306 36.241 30.3434 36.2321 30.3558 36.2226L26.5172 30.8785ZM34.3827 7.18115C34.1008 6.85367 33.7571 6.58493 33.3714 6.39027C32.9856 6.19561 32.5652 6.07884 32.1343 6.04663C31.7034 6.01442 31.2704 6.06741 30.8599 6.20256C30.4495 6.3377 30.0697 6.55238 29.7422 6.83431C29.4147 7.11623 29.146 7.45991 28.9513 7.84569C28.7567 8.23148 28.6399 8.65181 28.6077 9.08272C28.5755 9.51364 28.6285 9.94669 28.7636 10.3571C28.8987 10.7676 29.1134 11.1474 29.3953 11.4748C30.5602 12.8274 31.4331 14.406 31.9594 16.1117C32.4857 17.8174 32.6539 19.6134 32.4536 21.3872C32.2533 23.1609 31.6887 24.8742 30.7954 26.4196C29.902 27.9649 28.699 29.3091 27.2618 30.3678L31.1105 35.7056C33.2876 34.1137 35.1115 32.0884 36.4675 29.7571C37.8236 27.4258 38.6823 24.839 38.9897 22.1596C39.2971 19.4802 39.0464 16.7661 38.2536 14.1883C37.4607 11.6105 36.1428 9.22469 34.3827 7.18115ZM6.58172 19.9293C6.58244 16.8251 7.69661 13.8242 9.72182 11.4717C10.0037 11.1442 10.2184 10.7644 10.3536 10.354C10.4887 9.94357 10.5417 9.51051 10.5095 9.0796C10.4773 8.64868 10.3605 8.22833 10.1658 7.84254C9.97118 7.45676 9.70244 7.11311 9.37496 6.83118C9.04749 6.54925 8.66768 6.33458 8.25725 6.19943C7.84681 6.06428 7.41378 6.01129 6.98286 6.0435C6.55195 6.07571 6.13159 6.19249 5.74581 6.38715C5.36002 6.58181 5.01635 6.85054 4.73442 7.17802C2.97269 9.22349 1.65392 11.6118 0.861277 14.1924C0.0686324 16.773 -0.180695 19.4898 0.129033 22.1715C0.43876 24.8533 1.30083 27.4417 2.66084 29.7737C4.02086 32.1056 5.84932 34.1304 8.03093 35.7205L11.878 30.3811C10.2355 29.1782 8.89941 27.6051 7.97815 25.7895C7.05689 23.9739 6.57635 21.9668 6.57547 19.9308L6.58172 19.9293Z" fill="white"/>
</mask>
<g mask="url(#mask0_1079_647)">
<path d="M39.351 -3.71191H-0.243164V40.7289H39.351V-3.71191Z" fill="url(#paint0_linear_1079_647)"/>
</g>
<defs>
<linearGradient id="paint0_linear_1079_647" x1="-0.243164" y1="18.5085" x2="39.351" y2="18.5085" gradientUnits="userSpaceOnUse">
<stop stop-color="#25B5BB"/>
<stop offset="1" stop-color="#6B78B8"/>
</linearGradient>
</defs>
</svg>
