<svg width="20" height="20" viewBox="0 0 20 20" fill="none" xmlns="http://www.w3.org/2000/svg">
<path d="M17.9066 14.8703C17.5603 14.6127 17.071 14.6847 16.8134 15.0308C16.6718 15.2212 16.5202 15.4079 16.3629 15.5859C16.0772 15.9091 16.1075 16.4029 16.4308 16.6886C16.5794 16.82 16.764 16.8846 16.9479 16.8846C17.164 16.8846 17.3792 16.7954 17.5335 16.6208C17.7198 16.41 17.8993 16.1889 18.0671 15.9634C18.3246 15.6172 18.2528 15.1278 17.9066 14.8703Z" fill="#4A4A4A" fill-opacity="0.8"/>
<path d="M19.2129 11.2065C18.7916 11.1148 18.3752 11.3821 18.2834 11.8037C18.2329 12.0356 18.1719 12.268 18.1019 12.4944C17.9745 12.9066 18.2055 13.3441 18.6177 13.4714C18.6945 13.4951 18.7722 13.5064 18.8486 13.5064C19.1822 13.5064 19.4911 13.291 19.5948 12.9556C19.6778 12.6869 19.7502 12.4112 19.8102 12.136C19.9019 11.7145 19.6345 11.2983 19.2129 11.2065Z" fill="#4A4A4A" fill-opacity="0.8"/>
<path d="M14.146 17.3724C13.9386 17.4882 13.7238 17.5964 13.5077 17.694C13.1145 17.8716 12.9397 18.3344 13.1173 18.7276C13.2477 19.0165 13.5321 19.1875 13.8297 19.1875C13.9372 19.1875 14.0465 19.1652 14.1508 19.1181C14.4072 19.0023 14.6618 18.874 14.9077 18.7367C15.2845 18.5263 15.4194 18.0504 15.209 17.6737C14.9987 17.297 14.5228 17.1621 14.146 17.3724Z" fill="#4A4A4A" fill-opacity="0.8"/>
<path d="M9.21861 3.75V9.67641L6.35381 12.5412C6.04873 12.8463 6.04873 13.3409 6.35381 13.646C6.50639 13.7986 6.70627 13.8748 6.90627 13.8748C7.10619 13.8748 7.30615 13.7986 7.45873 13.646L10.5523 10.5524C10.6988 10.4059 10.7811 10.2072 10.7811 10V3.75C10.7811 3.31852 10.4313 2.96875 9.99986 2.96875C9.56838 2.96875 9.21861 3.31852 9.21861 3.75Z" fill="#4A4A4A" fill-opacity="0.8"/>
<path d="M19.2188 1.67969C18.7873 1.67969 18.4375 2.02945 18.4375 2.46094V4.63031C16.6191 1.77844 13.4434 0 10 0C7.32891 0 4.8177 1.0402 2.92891 2.92891C1.0402 4.8177 0 7.32891 0 10C0 12.6711 1.0402 15.1823 2.92891 17.0711C4.8177 18.9598 7.32891 20 10 20C10.0066 20 10.013 19.9992 10.0195 19.999C10.0261 19.9992 10.0325 20 10.0391 20C10.3206 20 10.605 19.9881 10.8843 19.9648C11.3142 19.9287 11.6336 19.551 11.5976 19.1211C11.5616 18.6911 11.1843 18.3716 10.7539 18.4077C10.5178 18.4275 10.2773 18.4375 10.0391 18.4375C10.0325 18.4375 10.0261 18.4383 10.0195 18.4385C10.013 18.4383 10.0066 18.4375 10 18.4375C5.34754 18.4375 1.5625 14.6525 1.5625 10C1.5625 5.34754 5.34754 1.5625 10 1.5625C12.9984 1.5625 15.7561 3.16066 17.2631 5.70312H15.115C14.6835 5.70312 14.3337 6.05289 14.3337 6.48438C14.3337 6.91586 14.6835 7.26562 15.115 7.26562H17.5C17.9758 7.26562 18.4209 7.13191 18.7999 6.90027C18.8243 6.88637 18.8477 6.87141 18.87 6.85527C19.55 6.40797 20 5.63855 20 4.76562V2.46094C20 2.02945 19.6502 1.67969 19.2188 1.67969Z" fill="#4A4A4A" fill-opacity="0.8"/>
</svg>
