<svg width="24" height="24" viewBox="0 0 24 24" fill="none" xmlns="http://www.w3.org/2000/svg">
<g clip-path="url(#clip0_57_4088)">
<path d="M12 0C5.38 0 0 5.38 0 12C0 18.62 5.38 24 12 24C12.75 24 13.48 23.93 14.2 23.8L13.38 21.34C13.26 21.46 13.13 21.56 13 21.65V20.19L11.14 14.62C11.04 14.33 11 14.03 11 13.74V15.77C10.05 15.81 9.12 15.89 8.24 16.04C8.06 15.1 7.94 14.08 7.89 12.98H11V13.74C11 13.03 11.28 12.34 11.81 11.81C12.32 11.29 13.01 11 13.75 11C14.05 11 14.34 11.05 14.63 11.14L20.14 12.98H21.95C21.93 13.18 21.91 13.37 21.87 13.56L23.8 14.2C23.93 13.48 24 12.75 24 12C24 5.38 18.62 0 12 0ZM11 17.77V21.65C10.14 21.07 9.32 19.79 8.74 17.98C9.47 17.87 10.22 17.8 11 17.77ZM3.6 6.59C4.4 6.97 5.3 7.29 6.28 7.55C6.07 8.62 5.94 9.77 5.89 10.98H2.05C2.21 9.38 2.77 7.89 3.6 6.59ZM2.05 12.98H5.89C5.94 14.21 6.07 15.37 6.28 16.45C5.3 16.71 4.4 17.03 3.6 17.41C2.76 16.11 2.21 14.6 2.05 12.98ZM7.94 21.13C6.79 20.62 5.76 19.9 4.89 19.02C5.46 18.77 6.09 18.56 6.76 18.39C7.08 19.42 7.48 20.35 7.94 21.13ZM6.76 5.61C6.09 5.44 5.46 5.23 4.89 4.98C5.76 4.1 6.79 3.38 7.94 2.87C7.48 3.65 7.08 4.58 6.76 5.61ZM11 10.98H7.89C7.94 9.9 8.06 8.89 8.24 7.96C9.12 8.11 10.05 8.19 11 8.23V10.98ZM11 6.23C10.22 6.2 9.47 6.13 8.74 6.02C9.32 4.21 10.14 2.93 11 2.35V6.23ZM13 2.35C13.86 2.93 14.68 4.21 15.26 6.02C14.53 6.13 13.78 6.2 13 6.23V2.35ZM13 10.98V8.23C13.95 8.19 14.88 8.11 15.76 7.96C15.94 8.89 16.06 9.9 16.11 10.98H13ZM16.06 2.87C17.21 3.38 18.24 4.1 19.11 4.98C18.54 5.23 17.91 5.44 17.24 5.61C16.92 4.58 16.52 3.65 16.06 2.87ZM18.11 10.98C18.06 9.77 17.93 8.62 17.72 7.55C18.7 7.29 19.6 6.97 20.4 6.59C21.23 7.89 21.79 9.38 21.95 10.98H18.11Z" fill="#3EBEBA"/>
<path d="M16.9171 24C16.9121 24 16.9061 24 16.9001 24C16.5841 23.993 16.3061 23.788 16.2061 23.487L13.0391 13.987C12.9491 13.717 13.0191 13.42 13.2201 13.219C13.4211 13.017 13.7181 12.947 13.9881 13.038L23.4881 16.205C23.7881 16.305 23.9931 16.583 24.0011 16.899C24.0081 17.215 23.8161 17.503 23.5201 17.616L19.2571 19.256L17.6171 23.519C17.5051 23.81 17.2261 24 16.9171 24Z" fill="#3EBEBA"/>
</g>
<defs>
<clipPath id="clip0_57_4088">
<rect width="24" height="24" fill="white"/>
</clipPath>
</defs>
</svg>
