<svg width="24" height="24" viewBox="0 0 24 24" fill="none" xmlns="http://www.w3.org/2000/svg">
<g clip-path="url(#clip0_559_2308)">
<path d="M12 0C6.93071 0 0 3.8315 0 12C0 19.9606 6.66614 24 12 24C21.1512 24 24 15.9827 24 12C24 6.12283 19.5024 0 12 0ZM9.21732 1.12913C7.96535 2.19685 6.92598 3.96378 6.25512 6.15591C5.38583 5.64094 4.5874 5.00315 3.87874 4.26142C5.34331 2.72598 7.19528 1.64882 9.21732 1.12913ZM3.36378 4.8378C4.15748 5.66457 5.05984 6.3685 6.04252 6.92598C5.67402 8.35748 5.45669 9.94488 5.42835 11.6126H0.784252C0.869291 9.12284 1.77638 6.74646 3.36378 4.8378ZM3.36378 19.1622C1.77165 17.2535 0.869291 14.8772 0.784252 12.3874H5.42835C5.45669 14.0598 5.67402 15.6425 6.04252 17.074C5.06457 17.6362 4.1622 18.3354 3.36378 19.1622ZM3.87874 19.7433C4.5874 19.0016 5.38583 18.3638 6.25512 17.8488C6.92598 20.0362 7.96535 21.8079 9.21732 22.8756C7.19528 22.3512 5.34331 21.274 3.87874 19.7433ZM11.6126 23.1968C9.6 22.9417 7.86614 20.6929 6.93071 17.4709C8.37638 16.7386 9.97323 16.3276 11.6126 16.2661V23.1968ZM11.6126 15.4961C9.90236 15.5528 8.23937 15.9732 6.73228 16.7102C6.41575 15.3874 6.22677 13.9276 6.19842 12.3874H11.6126V15.4961ZM11.6126 11.6126H6.19842C6.22677 10.0724 6.41575 8.6126 6.73228 7.28976C8.24409 8.02677 9.90709 8.44724 11.6126 8.50394V11.6126ZM11.6126 7.73386C9.9685 7.67717 8.37638 7.26142 6.93071 6.52913C7.86614 3.30236 9.6 1.05827 11.6126 0.80315V7.73386ZM20.6362 4.8378C22.2236 6.74646 23.1307 9.12284 23.2157 11.6126H18.5764C18.548 9.94016 18.3307 8.35748 17.9622 6.92598C18.9402 6.36378 19.8425 5.66457 20.6362 4.8378ZM20.1213 4.25669C19.4126 4.99843 18.6142 5.63622 17.7449 6.15118C17.074 3.96378 16.0346 2.19685 14.7827 1.12441C16.8047 1.64882 18.6567 2.72598 20.1213 4.25669ZM12.3874 0.80315C14.4 1.05827 16.1339 3.30709 17.0693 6.52913C15.6236 7.26142 14.0315 7.67244 12.3874 7.73386V0.80315ZM12.3874 8.50394C14.0976 8.44724 15.7606 8.02677 17.2677 7.28976C17.5843 8.6126 17.7732 10.0724 17.8016 11.6126H12.3874V8.50394ZM12.3874 12.3874H17.8016C17.7732 13.9276 17.5843 15.3874 17.2677 16.7102C15.7606 15.9685 14.0976 15.548 12.3874 15.4961V12.3874ZM12.3874 23.1968V16.2661C14.0315 16.3228 15.6236 16.7386 17.0693 17.4709C16.1339 20.6976 14.4 22.9417 12.3874 23.1968ZM14.7827 22.8709C16.0346 21.8032 17.074 20.0362 17.7449 17.8441C18.6142 18.3591 19.4126 18.9968 20.1213 19.7386C18.6567 21.274 16.8047 22.3512 14.7827 22.8709ZM20.6362 19.1622C19.8425 18.3354 18.9402 17.6362 17.9622 17.074C18.3307 15.6425 18.548 14.0551 18.5764 12.3874H23.2157C23.1307 14.8772 22.2236 17.2535 20.6362 19.1622Z" fill="#4A4A4A"/>
</g>
<defs>
<clipPath id="clip0_559_2308">
<rect width="24" height="24" fill="white"/>
</clipPath>
</defs>
</svg>
